<svg width="30" height="30" viewBox="0 0 30 30" fill="none" xmlns="http://www.w3.org/2000/svg">
<path d="M5.15625 5.625C4.28601 5.625 3.45141 5.9707 2.83606 6.58606C2.2207 7.20141 1.875 8.03601 1.875 8.90625V11.25H25.25V23.4375C25.25 23.6861 25.5246 24.1004 25.5246 24.1004C25.5246 24.1004 25.9389 24.375 26.1875 24.375C27 24.375 27.5 24.5 27.8504 24.1004C28.0262 23.9246 28.125 23.6861 28.125 23.4375V8.90625C28.125 8.03601 27.7793 7.20141 27.1639 6.58606C26.5486 5.9707 25.714 5.625 24.8438 5.625H5.15625ZM15 13.125H1.875V21.0938C1.875 22.905 3.345 24.375 5.15625 24.375H11.7188C12.589 24.375 13.4236 24.0293 14.0389 23.4139C14.6543 22.7986 15 21.964 15 21.0938V13.125ZM5.625 16.875C5.625 16.6264 5.72377 16.3879 5.89959 16.2121C6.0754 16.0363 6.31386 15.9375 6.5625 15.9375H10.3125C10.5611 15.9375 10.7996 16.0363 10.9754 16.2121C11.1512 16.3879 11.25 16.6264 11.25 16.875C11.25 17.1236 11.1512 17.3621 10.9754 17.5379C10.7996 17.7137 10.5611 17.8125 10.3125 17.8125H6.5625C6.31386 17.8125 6.0754 17.7137 5.89959 17.5379C5.72377 17.3621 5.625 17.1236 5.625 16.875Z" fill="#8A999C"/>
</svg>
