<svg width="20" height="22" viewBox="0 0 20 22" fill="none" xmlns="http://www.w3.org/2000/svg">
<path fill-rule="evenodd" clip-rule="evenodd" d="M10.0703 0.166504C9.783 0.166504 9.50745 0.28064 9.30428 0.483805C9.10112 0.686969 8.98698 0.962519 8.98698 1.24984V3.4165H2.48698C1.91234 3.4165 1.36124 3.64478 0.954914 4.05111C0.548586 4.45743 0.320313 5.00853 0.320312 5.58317V19.6665C0.320313 20.2411 0.548586 20.7922 0.954914 21.1986C1.36124 21.6049 1.91234 21.8332 2.48698 21.8332H17.6536C18.2283 21.8332 18.7794 21.6049 19.1857 21.1986C19.592 20.7922 19.8203 20.2411 19.8203 19.6665V5.58317C19.8203 5.00853 19.592 4.45743 19.1857 4.05111C18.7794 3.64478 18.2283 3.4165 17.6536 3.4165H11.1536V1.24984C11.1536 0.962519 11.0395 0.686969 10.8363 0.483805C10.6332 0.28064 10.3576 0.166504 10.0703 0.166504ZM11.1536 3.4165V12.9802L13.134 10.9998C13.3371 10.7966 13.6127 10.6823 13.9001 10.6822C14.1874 10.6821 14.4631 10.7962 14.6664 10.9993C14.8696 11.2024 14.9839 11.478 14.984 11.7654C14.9841 12.0527 14.87 12.3284 14.6669 12.5317L11.0269 16.1706C10.773 16.4243 10.4287 16.5668 10.0698 16.5668C9.71083 16.5668 9.36657 16.4243 9.11265 16.1706L5.47373 12.5317C5.37315 12.431 5.29338 12.3115 5.23897 12.1801C5.18456 12.0486 5.15658 11.9077 5.15663 11.7654C5.15668 11.6231 5.18476 11.4822 5.23926 11.3507C5.29376 11.2193 5.37362 11.0999 5.47427 10.9993C5.57492 10.8987 5.6944 10.8189 5.82588 10.7645C5.95737 10.7101 6.09828 10.6822 6.24057 10.6822C6.38286 10.6823 6.52376 10.7103 6.6552 10.7648C6.78664 10.8193 6.90606 10.8992 7.00665 10.9998L8.98698 12.9802V3.4165H11.1536Z" fill="white"/>
</svg>
