<svg width="100" height="100" viewBox="0 0 100 100" fill="none" xmlns="http://www.w3.org/2000/svg">
<g clip-path="url(#clip0_1303_4891)">
<path d="M100 0H0V100H100V0Z" fill="white"/>
<mask id="mask0_1303_4891" style="mask-type:luminance" maskUnits="userSpaceOnUse" x="4" y="4" width="92" height="92">
<path d="M24.4449 4.44434H22.2227V6.66656H24.4449V4.44434Z" fill="white"/>
<path d="M31.1128 4.44434H28.8906V6.66656H31.1128V4.44434Z" fill="white"/>
<path d="M33.3355 4.44434H31.1133V6.66656H33.3355V4.44434Z" fill="white"/>
<path d="M39.9996 4.44434H37.7773V6.66656H39.9996V4.44434Z" fill="white"/>
<path d="M42.2222 4.44434H40V6.66656H42.2222V4.44434Z" fill="white"/>
<path d="M46.6675 4.44434H44.4453V6.66656H46.6675V4.44434Z" fill="white"/>
<path d="M53.3355 4.44434H51.1133V6.66656H53.3355V4.44434Z" fill="white"/>
<path d="M57.7769 4.44434H55.5547V6.66656H57.7769V4.44434Z" fill="white"/>
<path d="M62.2222 4.44434H60V6.66656H62.2222V4.44434Z" fill="white"/>
<path d="M66.6675 4.44434H64.4453V6.66656H66.6675V4.44434Z" fill="white"/>
<path d="M68.8902 4.44434H66.668V6.66656H68.8902V4.44434Z" fill="white"/>
<path d="M73.3355 4.44434H71.1133V6.66656H73.3355V4.44434Z" fill="white"/>
<path d="M26.6675 6.6665H24.4453V8.88873H26.6675V6.6665Z" fill="white"/>
<path d="M33.3355 6.6665H31.1133V8.88873H33.3355V6.6665Z" fill="white"/>
<path d="M35.5582 6.6665H33.3359V8.88873H35.5582V6.6665Z" fill="white"/>
<path d="M39.9996 6.6665H37.7773V8.88873H39.9996V6.6665Z" fill="white"/>
<path d="M42.2222 6.6665H40V8.88873H42.2222V6.6665Z" fill="white"/>
<path d="M46.6675 6.6665H44.4453V8.88873H46.6675V6.6665Z" fill="white"/>
<path d="M48.8902 6.6665H46.668V8.88873H48.8902V6.6665Z" fill="white"/>
<path d="M53.3355 6.6665H51.1133V8.88873H53.3355V6.6665Z" fill="white"/>
<path d="M55.5582 6.6665H53.3359V8.88873H55.5582V6.6665Z" fill="white"/>
<path d="M62.2222 6.6665H60V8.88873H62.2222V6.6665Z" fill="white"/>
<path d="M64.4449 6.6665H62.2227V8.88873H64.4449V6.6665Z" fill="white"/>
<path d="M68.8902 6.6665H66.668V8.88873H68.8902V6.6665Z" fill="white"/>
<path d="M71.1128 6.6665H68.8906V8.88873H71.1128V6.6665Z" fill="white"/>
<path d="M73.3355 6.6665H71.1133V8.88873H73.3355V6.6665Z" fill="white"/>
<path d="M75.5582 6.6665H73.3359V8.88873H75.5582V6.6665Z" fill="white"/>
<path d="M77.7769 6.6665H75.5547V8.88873H77.7769V6.6665Z" fill="white"/>
<path d="M26.6675 8.88867H24.4453V11.1109H26.6675V8.88867Z" fill="white"/>
<path d="M33.3355 8.88867H31.1133V11.1109H33.3355V8.88867Z" fill="white"/>
<path d="M35.5582 8.88867H33.3359V11.1109H35.5582V8.88867Z" fill="white"/>
<path d="M39.9996 8.88867H37.7773V11.1109H39.9996V8.88867Z" fill="white"/>
<path d="M42.2222 8.88867H40V11.1109H42.2222V8.88867Z" fill="white"/>
<path d="M44.4449 8.88867H42.2227V11.1109H44.4449V8.88867Z" fill="white"/>
<path d="M46.6675 8.88867H44.4453V11.1109H46.6675V8.88867Z" fill="white"/>
<path d="M48.8902 8.88867H46.668V11.1109H48.8902V8.88867Z" fill="white"/>
<path d="M51.1128 8.88867H48.8906V11.1109H51.1128V8.88867Z" fill="white"/>
<path d="M55.5582 8.88867H53.3359V11.1109H55.5582V8.88867Z" fill="white"/>
<path d="M57.7769 8.88867H55.5547V11.1109H57.7769V8.88867Z" fill="white"/>
<path d="M64.4449 8.88867H62.2227V11.1109H64.4449V8.88867Z" fill="white"/>
<path d="M66.6675 8.88867H64.4453V11.1109H66.6675V8.88867Z" fill="white"/>
<path d="M71.1128 8.88867H68.8906V11.1109H71.1128V8.88867Z" fill="white"/>
<path d="M77.7769 8.88867H75.5547V11.1109H77.7769V8.88867Z" fill="white"/>
<path d="M24.4449 11.1108H22.2227V13.3331H24.4449V11.1108Z" fill="white"/>
<path d="M26.6675 11.1108H24.4453V13.3331H26.6675V11.1108Z" fill="white"/>
<path d="M33.3355 11.1108H31.1133V13.3331H33.3355V11.1108Z" fill="white"/>
<path d="M39.9996 11.1108H37.7773V13.3331H39.9996V11.1108Z" fill="white"/>
<path d="M42.2222 11.1108H40V13.3331H42.2222V11.1108Z" fill="white"/>
<path d="M44.4449 11.1108H42.2227V13.3331H44.4449V11.1108Z" fill="white"/>
<path d="M51.1128 11.1108H48.8906V13.3331H51.1128V11.1108Z" fill="white"/>
<path d="M53.3355 11.1108H51.1133V13.3331H53.3355V11.1108Z" fill="white"/>
<path d="M57.7769 11.1108H55.5547V13.3331H57.7769V11.1108Z" fill="white"/>
<path d="M59.9996 11.1108H57.7773V13.3331H59.9996V11.1108Z" fill="white"/>
<path d="M66.6675 11.1108H64.4453V13.3331H66.6675V11.1108Z" fill="white"/>
<path d="M68.8902 11.1108H66.668V13.3331H68.8902V11.1108Z" fill="white"/>
<path d="M73.3355 11.1108H71.1133V13.3331H73.3355V11.1108Z" fill="white"/>
<path d="M24.4449 13.333H22.2227V15.5552H24.4449V13.333Z" fill="white"/>
<path d="M28.8902 13.333H26.668V15.5552H28.8902V13.333Z" fill="white"/>
<path d="M33.3355 13.333H31.1133V15.5552H33.3355V13.333Z" fill="white"/>
<path d="M44.4449 13.333H42.2227V15.5552H44.4449V13.333Z" fill="white"/>
<path d="M57.7769 13.333H55.5547V15.5552H57.7769V13.333Z" fill="white"/>
<path d="M59.9996 13.333H57.7773V15.5552H59.9996V13.333Z" fill="white"/>
<path d="M62.2222 13.333H60V15.5552H62.2222V13.333Z" fill="white"/>
<path d="M66.6675 13.333H64.4453V15.5552H66.6675V13.333Z" fill="white"/>
<path d="M68.8902 13.333H66.668V15.5552H68.8902V13.333Z" fill="white"/>
<path d="M73.3355 13.333H71.1133V15.5552H73.3355V13.333Z" fill="white"/>
<path d="M24.4449 15.5557H22.2227V17.7779H24.4449V15.5557Z" fill="white"/>
<path d="M26.6675 15.5557H24.4453V17.7779H26.6675V15.5557Z" fill="white"/>
<path d="M28.8902 15.5557H26.668V17.7779H28.8902V15.5557Z" fill="white"/>
<path d="M31.1128 15.5557H28.8906V17.7779H31.1128V15.5557Z" fill="white"/>
<path d="M33.3355 15.5557H31.1133V17.7779H33.3355V15.5557Z" fill="white"/>
<path d="M42.2222 15.5557H40V17.7779H42.2222V15.5557Z" fill="white"/>
<path d="M44.4449 15.5557H42.2227V17.7779H44.4449V15.5557Z" fill="white"/>
<path d="M48.8902 15.5557H46.668V17.7779H48.8902V15.5557Z" fill="white"/>
<path d="M51.1128 15.5557H48.8906V17.7779H51.1128V15.5557Z" fill="white"/>
<path d="M55.5582 15.5557H53.3359V17.7779H55.5582V15.5557Z" fill="white"/>
<path d="M59.9996 15.5557H57.7773V17.7779H59.9996V15.5557Z" fill="white"/>
<path d="M68.8902 15.5557H66.668V17.7779H68.8902V15.5557Z" fill="white"/>
<path d="M73.3355 15.5557H71.1133V17.7779H73.3355V15.5557Z" fill="white"/>
<path d="M75.5582 15.5557H73.3359V17.7779H75.5582V15.5557Z" fill="white"/>
<path d="M24.4449 17.7778H22.2227V20.0001H24.4449V17.7778Z" fill="white"/>
<path d="M28.8902 17.7778H26.668V20.0001H28.8902V17.7778Z" fill="white"/>
<path d="M33.3355 17.7778H31.1133V20.0001H33.3355V17.7778Z" fill="white"/>
<path d="M37.7769 17.7778H35.5547V20.0001H37.7769V17.7778Z" fill="white"/>
<path d="M42.2222 17.7778H40V20.0001H42.2222V17.7778Z" fill="white"/>
<path d="M46.6675 17.7778H44.4453V20.0001H46.6675V17.7778Z" fill="white"/>
<path d="M51.1128 17.7778H48.8906V20.0001H51.1128V17.7778Z" fill="white"/>
<path d="M55.5582 17.7778H53.3359V20.0001H55.5582V17.7778Z" fill="white"/>
<path d="M59.9996 17.7778H57.7773V20.0001H59.9996V17.7778Z" fill="white"/>
<path d="M64.4449 17.7778H62.2227V20.0001H64.4449V17.7778Z" fill="white"/>
<path d="M68.8902 17.7778H66.668V20.0001H68.8902V17.7778Z" fill="white"/>
<path d="M73.3355 17.7778H71.1133V20.0001H73.3355V17.7778Z" fill="white"/>
<path d="M77.7769 17.7778H75.5547V20.0001H77.7769V17.7778Z" fill="white"/>
<path d="M24.4449 20H22.2227V22.2222H24.4449V20Z" fill="white"/>
<path d="M26.6675 20H24.4453V22.2222H26.6675V20Z" fill="white"/>
<path d="M28.8902 20H26.668V22.2222H28.8902V20Z" fill="white"/>
<path d="M35.5582 20H33.3359V22.2222H35.5582V20Z" fill="white"/>
<path d="M42.2222 20H40V22.2222H42.2222V20Z" fill="white"/>
<path d="M44.4449 20H42.2227V22.2222H44.4449V20Z" fill="white"/>
<path d="M46.6675 20H44.4453V22.2222H46.6675V20Z" fill="white"/>
<path d="M48.8902 20H46.668V22.2222H48.8902V20Z" fill="white"/>
<path d="M51.1128 20H48.8906V22.2222H51.1128V20Z" fill="white"/>
<path d="M53.3355 20H51.1133V22.2222H53.3355V20Z" fill="white"/>
<path d="M57.7769 20H55.5547V22.2222H57.7769V20Z" fill="white"/>
<path d="M59.9996 20H57.7773V22.2222H59.9996V20Z" fill="white"/>
<path d="M64.4449 20H62.2227V22.2222H64.4449V20Z" fill="white"/>
<path d="M66.6675 20H64.4453V22.2222H66.6675V20Z" fill="white"/>
<path d="M68.8902 20H66.668V22.2222H68.8902V20Z" fill="white"/>
<path d="M71.1128 20H68.8906V22.2222H71.1128V20Z" fill="white"/>
<path d="M75.5582 20H73.3359V22.2222H75.5582V20Z" fill="white"/>
<path d="M77.7769 20H75.5547V22.2222H77.7769V20Z" fill="white"/>
<path d="M6.66753 22.2222H4.44531V24.4444H6.66753V22.2222Z" fill="white"/>
<path d="M15.5582 22.2222H13.3359V24.4444H15.5582V22.2222Z" fill="white"/>
<path d="M19.9996 22.2222H17.7773V24.4444H19.9996V22.2222Z" fill="white"/>
<path d="M22.2222 22.2222H20V24.4444H22.2222V22.2222Z" fill="white"/>
<path d="M24.4449 22.2222H22.2227V24.4444H24.4449V22.2222Z" fill="white"/>
<path d="M28.8902 22.2222H26.668V24.4444H28.8902V22.2222Z" fill="white"/>
<path d="M31.1128 22.2222H28.8906V24.4444H31.1128V22.2222Z" fill="white"/>
<path d="M44.4449 22.2222H42.2227V24.4444H44.4449V22.2222Z" fill="white"/>
<path d="M51.1128 22.2222H48.8906V24.4444H51.1128V22.2222Z" fill="white"/>
<path d="M53.3355 22.2222H51.1133V24.4444H53.3355V22.2222Z" fill="white"/>
<path d="M59.9996 22.2222H57.7773V24.4444H59.9996V22.2222Z" fill="white"/>
<path d="M66.6675 22.2222H64.4453V24.4444H66.6675V22.2222Z" fill="white"/>
<path d="M71.1128 22.2222H68.8906V24.4444H71.1128V22.2222Z" fill="white"/>
<path d="M79.9996 22.2222H77.7773V24.4444H79.9996V22.2222Z" fill="white"/>
<path d="M82.2222 22.2222H80V24.4444H82.2222V22.2222Z" fill="white"/>
<path d="M84.4449 22.2222H82.2227V24.4444H84.4449V22.2222Z" fill="white"/>
<path d="M86.6675 22.2222H84.4453V24.4444H86.6675V22.2222Z" fill="white"/>
<path d="M88.8902 22.2222H86.668V24.4444H88.8902V22.2222Z" fill="white"/>
<path d="M95.5582 22.2222H93.3359V24.4444H95.5582V22.2222Z" fill="white"/>
<path d="M6.66753 24.4443H4.44531V26.6666H6.66753V24.4443Z" fill="white"/>
<path d="M11.1128 24.4443H8.89062V26.6666H11.1128V24.4443Z" fill="white"/>
<path d="M13.3355 24.4443H11.1133V26.6666H13.3355V24.4443Z" fill="white"/>
<path d="M15.5582 24.4443H13.3359V26.6666H15.5582V24.4443Z" fill="white"/>
<path d="M17.7769 24.4443H15.5547V26.6666H17.7769V24.4443Z" fill="white"/>
<path d="M28.8902 24.4443H26.668V26.6666H28.8902V24.4443Z" fill="white"/>
<path d="M31.1128 24.4443H28.8906V26.6666H31.1128V24.4443Z" fill="white"/>
<path d="M33.3355 24.4443H31.1133V26.6666H33.3355V24.4443Z" fill="white"/>
<path d="M51.1128 24.4443H48.8906V26.6666H51.1128V24.4443Z" fill="white"/>
<path d="M53.3355 24.4443H51.1133V26.6666H53.3355V24.4443Z" fill="white"/>
<path d="M57.7769 24.4443H55.5547V26.6666H57.7769V24.4443Z" fill="white"/>
<path d="M64.4449 24.4443H62.2227V26.6666H64.4449V24.4443Z" fill="white"/>
<path d="M66.6675 24.4443H64.4453V26.6666H66.6675V24.4443Z" fill="white"/>
<path d="M68.8902 24.4443H66.668V26.6666H68.8902V24.4443Z" fill="white"/>
<path d="M73.3355 24.4443H71.1133V26.6666H73.3355V24.4443Z" fill="white"/>
<path d="M82.2222 24.4443H80V26.6666H82.2222V24.4443Z" fill="white"/>
<path d="M84.4449 24.4443H82.2227V26.6666H84.4449V24.4443Z" fill="white"/>
<path d="M86.6675 24.4443H84.4453V26.6666H86.6675V24.4443Z" fill="white"/>
<path d="M88.8902 24.4443H86.668V26.6666H88.8902V24.4443Z" fill="white"/>
<path d="M93.3355 24.4443H91.1133V26.6666H93.3355V24.4443Z" fill="white"/>
<path d="M95.5582 24.4443H93.3359V26.6666H95.5582V24.4443Z" fill="white"/>
<path d="M6.66753 26.6665H4.44531V28.8887H6.66753V26.6665Z" fill="white"/>
<path d="M8.89019 26.6665H6.66797V28.8887H8.89019V26.6665Z" fill="white"/>
<path d="M17.7769 26.6665H15.5547V28.8887H17.7769V26.6665Z" fill="white"/>
<path d="M19.9996 26.6665H17.7773V28.8887H19.9996V26.6665Z" fill="white"/>
<path d="M22.2222 26.6665H20V28.8887H22.2222V26.6665Z" fill="white"/>
<path d="M37.7769 26.6665H35.5547V28.8887H37.7769V26.6665Z" fill="white"/>
<path d="M39.9996 26.6665H37.7773V28.8887H39.9996V26.6665Z" fill="white"/>
<path d="M42.2222 26.6665H40V28.8887H42.2222V26.6665Z" fill="white"/>
<path d="M46.6675 26.6665H44.4453V28.8887H46.6675V26.6665Z" fill="white"/>
<path d="M51.1128 26.6665H48.8906V28.8887H51.1128V26.6665Z" fill="white"/>
<path d="M53.3355 26.6665H51.1133V28.8887H53.3355V26.6665Z" fill="white"/>
<path d="M57.7769 26.6665H55.5547V28.8887H57.7769V26.6665Z" fill="white"/>
<path d="M64.4449 26.6665H62.2227V28.8887H64.4449V26.6665Z" fill="white"/>
<path d="M66.6675 26.6665H64.4453V28.8887H66.6675V26.6665Z" fill="white"/>
<path d="M68.8902 26.6665H66.668V28.8887H68.8902V26.6665Z" fill="white"/>
<path d="M71.1128 26.6665H68.8906V28.8887H71.1128V26.6665Z" fill="white"/>
<path d="M73.3355 26.6665H71.1133V28.8887H73.3355V26.6665Z" fill="white"/>
<path d="M77.7769 26.6665H75.5547V28.8887H77.7769V26.6665Z" fill="white"/>
<path d="M86.6675 26.6665H84.4453V28.8887H86.6675V26.6665Z" fill="white"/>
<path d="M95.5582 26.6665H93.3359V28.8887H95.5582V26.6665Z" fill="white"/>
<path d="M8.89019 28.8887H6.66797V31.1109H8.89019V28.8887Z" fill="white"/>
<path d="M11.1128 28.8887H8.89062V31.1109H11.1128V28.8887Z" fill="white"/>
<path d="M13.3355 28.8887H11.1133V31.1109H13.3355V28.8887Z" fill="white"/>
<path d="M17.7769 28.8887H15.5547V31.1109H17.7769V28.8887Z" fill="white"/>
<path d="M22.2222 28.8887H20V31.1109H22.2222V28.8887Z" fill="white"/>
<path d="M28.8902 28.8887H26.668V31.1109H28.8902V28.8887Z" fill="white"/>
<path d="M31.1128 28.8887H28.8906V31.1109H31.1128V28.8887Z" fill="white"/>
<path d="M35.5582 28.8887H33.3359V31.1109H35.5582V28.8887Z" fill="white"/>
<path d="M37.7769 28.8887H35.5547V31.1109H37.7769V28.8887Z" fill="white"/>
<path d="M44.4449 28.8887H42.2227V31.1109H44.4449V28.8887Z" fill="white"/>
<path d="M51.1128 28.8887H48.8906V31.1109H51.1128V28.8887Z" fill="white"/>
<path d="M53.3355 28.8887H51.1133V31.1109H53.3355V28.8887Z" fill="white"/>
<path d="M57.7769 28.8887H55.5547V31.1109H57.7769V28.8887Z" fill="white"/>
<path d="M59.9996 28.8887H57.7773V31.1109H59.9996V28.8887Z" fill="white"/>
<path d="M71.1128 28.8887H68.8906V31.1109H71.1128V28.8887Z" fill="white"/>
<path d="M75.5582 28.8887H73.3359V31.1109H75.5582V28.8887Z" fill="white"/>
<path d="M77.7769 28.8887H75.5547V31.1109H77.7769V28.8887Z" fill="white"/>
<path d="M84.4449 28.8887H82.2227V31.1109H84.4449V28.8887Z" fill="white"/>
<path d="M88.8902 28.8887H86.668V31.1109H88.8902V28.8887Z" fill="white"/>
<path d="M95.5582 28.8887H93.3359V31.1109H95.5582V28.8887Z" fill="white"/>
<path d="M13.3355 31.1108H11.1133V33.3331H13.3355V31.1108Z" fill="white"/>
<path d="M17.7769 31.1108H15.5547V33.3331H17.7769V31.1108Z" fill="white"/>
<path d="M19.9996 31.1108H17.7773V33.3331H19.9996V31.1108Z" fill="white"/>
<path d="M22.2222 31.1108H20V33.3331H22.2222V31.1108Z" fill="white"/>
<path d="M26.6675 31.1108H24.4453V33.3331H26.6675V31.1108Z" fill="white"/>
<path d="M35.5582 31.1108H33.3359V33.3331H35.5582V31.1108Z" fill="white"/>
<path d="M37.7769 31.1108H35.5547V33.3331H37.7769V31.1108Z" fill="white"/>
<path d="M44.4449 31.1108H42.2227V33.3331H44.4449V31.1108Z" fill="white"/>
<path d="M51.1128 31.1108H48.8906V33.3331H51.1128V31.1108Z" fill="white"/>
<path d="M53.3355 31.1108H51.1133V33.3331H53.3355V31.1108Z" fill="white"/>
<path d="M55.5582 31.1108H53.3359V33.3331H55.5582V31.1108Z" fill="white"/>
<path d="M57.7769 31.1108H55.5547V33.3331H57.7769V31.1108Z" fill="white"/>
<path d="M66.6675 31.1108H64.4453V33.3331H66.6675V31.1108Z" fill="white"/>
<path d="M71.1128 31.1108H68.8906V33.3331H71.1128V31.1108Z" fill="white"/>
<path d="M79.9996 31.1108H77.7773V33.3331H79.9996V31.1108Z" fill="white"/>
<path d="M84.4449 31.1108H82.2227V33.3331H84.4449V31.1108Z" fill="white"/>
<path d="M93.3355 31.1108H91.1133V33.3331H93.3355V31.1108Z" fill="white"/>
<path d="M95.5582 31.1108H93.3359V33.3331H95.5582V31.1108Z" fill="white"/>
<path d="M8.89019 33.333H6.66797V35.5552H8.89019V33.333Z" fill="white"/>
<path d="M13.3355 33.333H11.1133V35.5552H13.3355V33.333Z" fill="white"/>
<path d="M22.2222 33.333H20V35.5552H22.2222V33.333Z" fill="white"/>
<path d="M26.6675 33.333H24.4453V35.5552H26.6675V33.333Z" fill="white"/>
<path d="M33.3355 33.333H31.1133V35.5552H33.3355V33.333Z" fill="white"/>
<path d="M39.9996 33.333H37.7773V35.5552H39.9996V33.333Z" fill="white"/>
<path d="M44.4449 33.333H42.2227V35.5552H44.4449V33.333Z" fill="white"/>
<path d="M46.6675 33.333H44.4453V35.5552H46.6675V33.333Z" fill="white"/>
<path d="M48.8902 33.333H46.668V35.5552H48.8902V33.333Z" fill="white"/>
<path d="M53.3355 33.333H51.1133V35.5552H53.3355V33.333Z" fill="white"/>
<path d="M59.9996 33.333H57.7773V35.5552H59.9996V33.333Z" fill="white"/>
<path d="M62.2222 33.333H60V35.5552H62.2222V33.333Z" fill="white"/>
<path d="M68.8902 33.333H66.668V35.5552H68.8902V33.333Z" fill="white"/>
<path d="M71.1128 33.333H68.8906V35.5552H71.1128V33.333Z" fill="white"/>
<path d="M73.3355 33.333H71.1133V35.5552H73.3355V33.333Z" fill="white"/>
<path d="M79.9996 33.333H77.7773V35.5552H79.9996V33.333Z" fill="white"/>
<path d="M82.2222 33.333H80V35.5552H82.2222V33.333Z" fill="white"/>
<path d="M84.4449 33.333H82.2227V35.5552H84.4449V33.333Z" fill="white"/>
<path d="M86.6675 33.333H84.4453V35.5552H86.6675V33.333Z" fill="white"/>
<path d="M88.8902 33.333H86.668V35.5552H88.8902V33.333Z" fill="white"/>
<path d="M91.1128 33.333H88.8906V35.5552H91.1128V33.333Z" fill="white"/>
<path d="M95.5582 33.333H93.3359V35.5552H95.5582V33.333Z" fill="white"/>
<path d="M6.66753 35.5557H4.44531V37.7779H6.66753V35.5557Z" fill="white"/>
<path d="M8.89019 35.5557H6.66797V37.7779H8.89019V35.5557Z" fill="white"/>
<path d="M13.3355 35.5557H11.1133V37.7779H13.3355V35.5557Z" fill="white"/>
<path d="M15.5582 35.5557H13.3359V37.7779H15.5582V35.5557Z" fill="white"/>
<path d="M17.7769 35.5557H15.5547V37.7779H17.7769V35.5557Z" fill="white"/>
<path d="M19.9996 35.5557H17.7773V37.7779H19.9996V35.5557Z" fill="white"/>
<path d="M22.2222 35.5557H20V37.7779H22.2222V35.5557Z" fill="white"/>
<path d="M24.4449 35.5557H22.2227V37.7779H24.4449V35.5557Z" fill="white"/>
<path d="M26.6675 35.5557H24.4453V37.7779H26.6675V35.5557Z" fill="white"/>
<path d="M31.1128 35.5557H28.8906V37.7779H31.1128V35.5557Z" fill="white"/>
<path d="M39.9996 35.5557H37.7773V37.7779H39.9996V35.5557Z" fill="white"/>
<path d="M42.2222 35.5557H40V37.7779H42.2222V35.5557Z" fill="white"/>
<path d="M46.6675 35.5557H44.4453V37.7779H46.6675V35.5557Z" fill="white"/>
<path d="M48.8902 35.5557H46.668V37.7779H48.8902V35.5557Z" fill="white"/>
<path d="M53.3355 35.5557H51.1133V37.7779H53.3355V35.5557Z" fill="white"/>
<path d="M57.7769 35.5557H55.5547V37.7779H57.7769V35.5557Z" fill="white"/>
<path d="M59.9996 35.5557H57.7773V37.7779H59.9996V35.5557Z" fill="white"/>
<path d="M64.4449 35.5557H62.2227V37.7779H64.4449V35.5557Z" fill="white"/>
<path d="M68.8902 35.5557H66.668V37.7779H68.8902V35.5557Z" fill="white"/>
<path d="M73.3355 35.5557H71.1133V37.7779H73.3355V35.5557Z" fill="white"/>
<path d="M77.7769 35.5557H75.5547V37.7779H77.7769V35.5557Z" fill="white"/>
<path d="M79.9996 35.5557H77.7773V37.7779H79.9996V35.5557Z" fill="white"/>
<path d="M82.2222 35.5557H80V37.7779H82.2222V35.5557Z" fill="white"/>
<path d="M91.1128 35.5557H88.8906V37.7779H91.1128V35.5557Z" fill="white"/>
<path d="M95.5582 35.5557H93.3359V37.7779H95.5582V35.5557Z" fill="white"/>
<path d="M6.66753 37.7778H4.44531V40.0001H6.66753V37.7778Z" fill="white"/>
<path d="M11.1128 37.7778H8.89062V40.0001H11.1128V37.7778Z" fill="white"/>
<path d="M17.7769 37.7778H15.5547V40.0001H17.7769V37.7778Z" fill="white"/>
<path d="M24.4449 37.7778H22.2227V40.0001H24.4449V37.7778Z" fill="white"/>
<path d="M26.6675 37.7778H24.4453V40.0001H26.6675V37.7778Z" fill="white"/>
<path d="M28.8902 37.7778H26.668V40.0001H28.8902V37.7778Z" fill="white"/>
<path d="M35.5582 37.7778H33.3359V40.0001H35.5582V37.7778Z" fill="white"/>
<path d="M37.7769 37.7778H35.5547V40.0001H37.7769V37.7778Z" fill="white"/>
<path d="M39.9996 37.7778H37.7773V40.0001H39.9996V37.7778Z" fill="white"/>
<path d="M44.4449 37.7778H42.2227V40.0001H44.4449V37.7778Z" fill="white"/>
<path d="M48.8902 37.7778H46.668V40.0001H48.8902V37.7778Z" fill="white"/>
<path d="M51.1128 37.7778H48.8906V40.0001H51.1128V37.7778Z" fill="white"/>
<path d="M53.3355 37.7778H51.1133V40.0001H53.3355V37.7778Z" fill="white"/>
<path d="M57.7769 37.7778H55.5547V40.0001H57.7769V37.7778Z" fill="white"/>
<path d="M71.1128 37.7778H68.8906V40.0001H71.1128V37.7778Z" fill="white"/>
<path d="M73.3355 37.7778H71.1133V40.0001H73.3355V37.7778Z" fill="white"/>
<path d="M84.4449 37.7778H82.2227V40.0001H84.4449V37.7778Z" fill="white"/>
<path d="M88.8902 37.7778H86.668V40.0001H88.8902V37.7778Z" fill="white"/>
<path d="M93.3355 37.7778H91.1133V40.0001H93.3355V37.7778Z" fill="white"/>
<path d="M17.7769 40H15.5547V42.2222H17.7769V40Z" fill="white"/>
<path d="M19.9996 40H17.7773V42.2222H19.9996V40Z" fill="white"/>
<path d="M22.2222 40H20V42.2222H22.2222V40Z" fill="white"/>
<path d="M24.4449 40H22.2227V42.2222H24.4449V40Z" fill="white"/>
<path d="M26.6675 40H24.4453V42.2222H26.6675V40Z" fill="white"/>
<path d="M31.1128 40H28.8906V42.2222H31.1128V40Z" fill="white"/>
<path d="M39.9996 40H37.7773V42.2222H39.9996V40Z" fill="white"/>
<path d="M42.2222 40H40V42.2222H42.2222V40Z" fill="white"/>
<path d="M44.4449 40H42.2227V42.2222H44.4449V40Z" fill="white"/>
<path d="M51.1128 40H48.8906V42.2222H51.1128V40Z" fill="white"/>
<path d="M53.3355 40H51.1133V42.2222H53.3355V40Z" fill="white"/>
<path d="M55.5582 40H53.3359V42.2222H55.5582V40Z" fill="white"/>
<path d="M59.9996 40H57.7773V42.2222H59.9996V40Z" fill="white"/>
<path d="M64.4449 40H62.2227V42.2222H64.4449V40Z" fill="white"/>
<path d="M66.6675 40H64.4453V42.2222H66.6675V40Z" fill="white"/>
<path d="M71.1128 40H68.8906V42.2222H71.1128V40Z" fill="white"/>
<path d="M75.5582 40H73.3359V42.2222H75.5582V40Z" fill="white"/>
<path d="M84.4449 40H82.2227V42.2222H84.4449V40Z" fill="white"/>
<path d="M88.8902 40H86.668V42.2222H88.8902V40Z" fill="white"/>
<path d="M93.3355 40H91.1133V42.2222H93.3355V40Z" fill="white"/>
<path d="M95.5582 40H93.3359V42.2222H95.5582V40Z" fill="white"/>
<path d="M6.66753 42.2222H4.44531V44.4444H6.66753V42.2222Z" fill="white"/>
<path d="M8.89019 42.2222H6.66797V44.4444H8.89019V42.2222Z" fill="white"/>
<path d="M17.7769 42.2222H15.5547V44.4444H17.7769V42.2222Z" fill="white"/>
<path d="M22.2222 42.2222H20V44.4444H22.2222V42.2222Z" fill="white"/>
<path d="M24.4449 42.2222H22.2227V44.4444H24.4449V42.2222Z" fill="white"/>
<path d="M26.6675 42.2222H24.4453V44.4444H26.6675V42.2222Z" fill="white"/>
<path d="M28.8902 42.2222H26.668V44.4444H28.8902V42.2222Z" fill="white"/>
<path d="M35.5582 42.2222H33.3359V44.4444H35.5582V42.2222Z" fill="white"/>
<path d="M39.9996 42.2222H37.7773V44.4444H39.9996V42.2222Z" fill="white"/>
<path d="M44.4449 42.2222H42.2227V44.4444H44.4449V42.2222Z" fill="white"/>
<path d="M46.6675 42.2222H44.4453V44.4444H46.6675V42.2222Z" fill="white"/>
<path d="M55.5582 42.2222H53.3359V44.4444H55.5582V42.2222Z" fill="white"/>
<path d="M57.7769 42.2222H55.5547V44.4444H57.7769V42.2222Z" fill="white"/>
<path d="M64.4449 42.2222H62.2227V44.4444H64.4449V42.2222Z" fill="white"/>
<path d="M66.6675 42.2222H64.4453V44.4444H66.6675V42.2222Z" fill="white"/>
<path d="M68.8902 42.2222H66.668V44.4444H68.8902V42.2222Z" fill="white"/>
<path d="M79.9996 42.2222H77.7773V44.4444H79.9996V42.2222Z" fill="white"/>
<path d="M82.2222 42.2222H80V44.4444H82.2222V42.2222Z" fill="white"/>
<path d="M84.4449 42.2222H82.2227V44.4444H84.4449V42.2222Z" fill="white"/>
<path d="M86.6675 42.2222H84.4453V44.4444H86.6675V42.2222Z" fill="white"/>
<path d="M88.8902 42.2222H86.668V44.4444H88.8902V42.2222Z" fill="white"/>
<path d="M91.1128 42.2222H88.8906V44.4444H91.1128V42.2222Z" fill="white"/>
<path d="M93.3355 42.2222H91.1133V44.4444H93.3355V42.2222Z" fill="white"/>
<path d="M95.5582 42.2222H93.3359V44.4444H95.5582V42.2222Z" fill="white"/>
<path d="M8.89019 44.4443H6.66797V46.6666H8.89019V44.4443Z" fill="white"/>
<path d="M13.3355 44.4443H11.1133V46.6666H13.3355V44.4443Z" fill="white"/>
<path d="M19.9996 44.4443H17.7773V46.6666H19.9996V44.4443Z" fill="white"/>
<path d="M28.8902 44.4443H26.668V46.6666H28.8902V44.4443Z" fill="white"/>
<path d="M31.1128 44.4443H28.8906V46.6666H31.1128V44.4443Z" fill="white"/>
<path d="M35.5582 44.4443H33.3359V46.6666H35.5582V44.4443Z" fill="white"/>
<path d="M39.9996 44.4443H37.7773V46.6666H39.9996V44.4443Z" fill="white"/>
<path d="M46.6675 44.4443H44.4453V46.6666H46.6675V44.4443Z" fill="white"/>
<path d="M51.1128 44.4443H48.8906V46.6666H51.1128V44.4443Z" fill="white"/>
<path d="M53.3355 44.4443H51.1133V46.6666H53.3355V44.4443Z" fill="white"/>
<path d="M55.5582 44.4443H53.3359V46.6666H55.5582V44.4443Z" fill="white"/>
<path d="M57.7769 44.4443H55.5547V46.6666H57.7769V44.4443Z" fill="white"/>
<path d="M59.9996 44.4443H57.7773V46.6666H59.9996V44.4443Z" fill="white"/>
<path d="M62.2222 44.4443H60V46.6666H62.2222V44.4443Z" fill="white"/>
<path d="M64.4449 44.4443H62.2227V46.6666H64.4449V44.4443Z" fill="white"/>
<path d="M66.6675 44.4443H64.4453V46.6666H66.6675V44.4443Z" fill="white"/>
<path d="M71.1128 44.4443H68.8906V46.6666H71.1128V44.4443Z" fill="white"/>
<path d="M73.3355 44.4443H71.1133V46.6666H73.3355V44.4443Z" fill="white"/>
<path d="M77.7769 44.4443H75.5547V46.6666H77.7769V44.4443Z" fill="white"/>
<path d="M79.9996 44.4443H77.7773V46.6666H79.9996V44.4443Z" fill="white"/>
<path d="M82.2222 44.4443H80V46.6666H82.2222V44.4443Z" fill="white"/>
<path d="M84.4449 44.4443H82.2227V46.6666H84.4449V44.4443Z" fill="white"/>
<path d="M91.1128 44.4443H88.8906V46.6666H91.1128V44.4443Z" fill="white"/>
<path d="M95.5582 44.4443H93.3359V46.6666H95.5582V44.4443Z" fill="white"/>
<path d="M6.66753 46.6665H4.44531V48.8887H6.66753V46.6665Z" fill="white"/>
<path d="M11.1128 46.6665H8.89062V48.8887H11.1128V46.6665Z" fill="white"/>
<path d="M15.5582 46.6665H13.3359V48.8887H15.5582V46.6665Z" fill="white"/>
<path d="M24.4449 46.6665H22.2227V48.8887H24.4449V46.6665Z" fill="white"/>
<path d="M28.8902 46.6665H26.668V48.8887H28.8902V46.6665Z" fill="white"/>
<path d="M37.7769 46.6665H35.5547V48.8887H37.7769V46.6665Z" fill="white"/>
<path d="M39.9996 46.6665H37.7773V48.8887H39.9996V46.6665Z" fill="white"/>
<path d="M42.2222 46.6665H40V48.8887H42.2222V46.6665Z" fill="white"/>
<path d="M53.3355 46.6665H51.1133V48.8887H53.3355V46.6665Z" fill="white"/>
<path d="M62.2222 46.6665H60V48.8887H62.2222V46.6665Z" fill="white"/>
<path d="M66.6675 46.6665H64.4453V48.8887H66.6675V46.6665Z" fill="white"/>
<path d="M71.1128 46.6665H68.8906V48.8887H71.1128V46.6665Z" fill="white"/>
<path d="M73.3355 46.6665H71.1133V48.8887H73.3355V46.6665Z" fill="white"/>
<path d="M77.7769 46.6665H75.5547V48.8887H77.7769V46.6665Z" fill="white"/>
<path d="M79.9996 46.6665H77.7773V48.8887H79.9996V46.6665Z" fill="white"/>
<path d="M82.2222 46.6665H80V48.8887H82.2222V46.6665Z" fill="white"/>
<path d="M84.4449 46.6665H82.2227V48.8887H84.4449V46.6665Z" fill="white"/>
<path d="M88.8902 46.6665H86.668V48.8887H88.8902V46.6665Z" fill="white"/>
<path d="M11.1128 48.8887H8.89062V51.1109H11.1128V48.8887Z" fill="white"/>
<path d="M13.3355 48.8887H11.1133V51.1109H13.3355V48.8887Z" fill="white"/>
<path d="M15.5582 48.8887H13.3359V51.1109H15.5582V48.8887Z" fill="white"/>
<path d="M17.7769 48.8887H15.5547V51.1109H17.7769V48.8887Z" fill="white"/>
<path d="M19.9996 48.8887H17.7773V51.1109H19.9996V48.8887Z" fill="white"/>
<path d="M24.4449 48.8887H22.2227V51.1109H24.4449V48.8887Z" fill="white"/>
<path d="M26.6675 48.8887H24.4453V51.1109H26.6675V48.8887Z" fill="white"/>
<path d="M28.8902 48.8887H26.668V51.1109H28.8902V48.8887Z" fill="white"/>
<path d="M35.5582 48.8887H33.3359V51.1109H35.5582V48.8887Z" fill="white"/>
<path d="M42.2222 48.8887H40V51.1109H42.2222V48.8887Z" fill="white"/>
<path d="M51.1128 48.8887H48.8906V51.1109H51.1128V48.8887Z" fill="white"/>
<path d="M59.9996 48.8887H57.7773V51.1109H59.9996V48.8887Z" fill="white"/>
<path d="M62.2222 48.8887H60V51.1109H62.2222V48.8887Z" fill="white"/>
<path d="M73.3355 48.8887H71.1133V51.1109H73.3355V48.8887Z" fill="white"/>
<path d="M75.5582 48.8887H73.3359V51.1109H75.5582V48.8887Z" fill="white"/>
<path d="M77.7769 48.8887H75.5547V51.1109H77.7769V48.8887Z" fill="white"/>
<path d="M79.9996 48.8887H77.7773V51.1109H79.9996V48.8887Z" fill="white"/>
<path d="M84.4449 48.8887H82.2227V51.1109H84.4449V48.8887Z" fill="white"/>
<path d="M86.6675 48.8887H84.4453V51.1109H86.6675V48.8887Z" fill="white"/>
<path d="M88.8902 48.8887H86.668V51.1109H88.8902V48.8887Z" fill="white"/>
<path d="M93.3355 48.8887H91.1133V51.1109H93.3355V48.8887Z" fill="white"/>
<path d="M95.5582 48.8887H93.3359V51.1109H95.5582V48.8887Z" fill="white"/>
<path d="M17.7769 51.1108H15.5547V53.3331H17.7769V51.1108Z" fill="white"/>
<path d="M22.2222 51.1108H20V53.3331H22.2222V51.1108Z" fill="white"/>
<path d="M26.6675 51.1108H24.4453V53.3331H26.6675V51.1108Z" fill="white"/>
<path d="M28.8902 51.1108H26.668V53.3331H28.8902V51.1108Z" fill="white"/>
<path d="M35.5582 51.1108H33.3359V53.3331H35.5582V51.1108Z" fill="white"/>
<path d="M39.9996 51.1108H37.7773V53.3331H39.9996V51.1108Z" fill="white"/>
<path d="M46.6675 51.1108H44.4453V53.3331H46.6675V51.1108Z" fill="white"/>
<path d="M51.1128 51.1108H48.8906V53.3331H51.1128V51.1108Z" fill="white"/>
<path d="M53.3355 51.1108H51.1133V53.3331H53.3355V51.1108Z" fill="white"/>
<path d="M55.5582 51.1108H53.3359V53.3331H55.5582V51.1108Z" fill="white"/>
<path d="M57.7769 51.1108H55.5547V53.3331H57.7769V51.1108Z" fill="white"/>
<path d="M64.4449 51.1108H62.2227V53.3331H64.4449V51.1108Z" fill="white"/>
<path d="M66.6675 51.1108H64.4453V53.3331H66.6675V51.1108Z" fill="white"/>
<path d="M68.8902 51.1108H66.668V53.3331H68.8902V51.1108Z" fill="white"/>
<path d="M71.1128 51.1108H68.8906V53.3331H71.1128V51.1108Z" fill="white"/>
<path d="M73.3355 51.1108H71.1133V53.3331H73.3355V51.1108Z" fill="white"/>
<path d="M77.7769 51.1108H75.5547V53.3331H77.7769V51.1108Z" fill="white"/>
<path d="M79.9996 51.1108H77.7773V53.3331H79.9996V51.1108Z" fill="white"/>
<path d="M82.2222 51.1108H80V53.3331H82.2222V51.1108Z" fill="white"/>
<path d="M84.4449 51.1108H82.2227V53.3331H84.4449V51.1108Z" fill="white"/>
<path d="M86.6675 51.1108H84.4453V53.3331H86.6675V51.1108Z" fill="white"/>
<path d="M91.1128 51.1108H88.8906V53.3331H91.1128V51.1108Z" fill="white"/>
<path d="M95.5582 51.1108H93.3359V53.3331H95.5582V51.1108Z" fill="white"/>
<path d="M11.1128 53.333H8.89062V55.5552H11.1128V53.333Z" fill="white"/>
<path d="M19.9996 53.333H17.7773V55.5552H19.9996V53.333Z" fill="white"/>
<path d="M22.2222 53.333H20V55.5552H22.2222V53.333Z" fill="white"/>
<path d="M26.6675 53.333H24.4453V55.5552H26.6675V53.333Z" fill="white"/>
<path d="M28.8902 53.333H26.668V55.5552H28.8902V53.333Z" fill="white"/>
<path d="M31.1128 53.333H28.8906V55.5552H31.1128V53.333Z" fill="white"/>
<path d="M33.3355 53.333H31.1133V55.5552H33.3355V53.333Z" fill="white"/>
<path d="M35.5582 53.333H33.3359V55.5552H35.5582V53.333Z" fill="white"/>
<path d="M37.7769 53.333H35.5547V55.5552H37.7769V53.333Z" fill="white"/>
<path d="M39.9996 53.333H37.7773V55.5552H39.9996V53.333Z" fill="white"/>
<path d="M42.2222 53.333H40V55.5552H42.2222V53.333Z" fill="white"/>
<path d="M51.1128 53.333H48.8906V55.5552H51.1128V53.333Z" fill="white"/>
<path d="M57.7769 53.333H55.5547V55.5552H57.7769V53.333Z" fill="white"/>
<path d="M59.9996 53.333H57.7773V55.5552H59.9996V53.333Z" fill="white"/>
<path d="M62.2222 53.333H60V55.5552H62.2222V53.333Z" fill="white"/>
<path d="M64.4449 53.333H62.2227V55.5552H64.4449V53.333Z" fill="white"/>
<path d="M66.6675 53.333H64.4453V55.5552H66.6675V53.333Z" fill="white"/>
<path d="M71.1128 53.333H68.8906V55.5552H71.1128V53.333Z" fill="white"/>
<path d="M73.3355 53.333H71.1133V55.5552H73.3355V53.333Z" fill="white"/>
<path d="M77.7769 53.333H75.5547V55.5552H77.7769V53.333Z" fill="white"/>
<path d="M84.4449 53.333H82.2227V55.5552H84.4449V53.333Z" fill="white"/>
<path d="M86.6675 53.333H84.4453V55.5552H86.6675V53.333Z" fill="white"/>
<path d="M88.8902 53.333H86.668V55.5552H88.8902V53.333Z" fill="white"/>
<path d="M91.1128 53.333H88.8906V55.5552H91.1128V53.333Z" fill="white"/>
<path d="M95.5582 53.333H93.3359V55.5552H95.5582V53.333Z" fill="white"/>
<path d="M6.66753 55.5557H4.44531V57.7779H6.66753V55.5557Z" fill="white"/>
<path d="M17.7769 55.5557H15.5547V57.7779H17.7769V55.5557Z" fill="white"/>
<path d="M22.2222 55.5557H20V57.7779H22.2222V55.5557Z" fill="white"/>
<path d="M24.4449 55.5557H22.2227V57.7779H24.4449V55.5557Z" fill="white"/>
<path d="M28.8902 55.5557H26.668V57.7779H28.8902V55.5557Z" fill="white"/>
<path d="M31.1128 55.5557H28.8906V57.7779H31.1128V55.5557Z" fill="white"/>
<path d="M33.3355 55.5557H31.1133V57.7779H33.3355V55.5557Z" fill="white"/>
<path d="M35.5582 55.5557H33.3359V57.7779H35.5582V55.5557Z" fill="white"/>
<path d="M39.9996 55.5557H37.7773V57.7779H39.9996V55.5557Z" fill="white"/>
<path d="M42.2222 55.5557H40V57.7779H42.2222V55.5557Z" fill="white"/>
<path d="M44.4449 55.5557H42.2227V57.7779H44.4449V55.5557Z" fill="white"/>
<path d="M46.6675 55.5557H44.4453V57.7779H46.6675V55.5557Z" fill="white"/>
<path d="M51.1128 55.5557H48.8906V57.7779H51.1128V55.5557Z" fill="white"/>
<path d="M53.3355 55.5557H51.1133V57.7779H53.3355V55.5557Z" fill="white"/>
<path d="M55.5582 55.5557H53.3359V57.7779H55.5582V55.5557Z" fill="white"/>
<path d="M57.7769 55.5557H55.5547V57.7779H57.7769V55.5557Z" fill="white"/>
<path d="M64.4449 55.5557H62.2227V57.7779H64.4449V55.5557Z" fill="white"/>
<path d="M66.6675 55.5557H64.4453V57.7779H66.6675V55.5557Z" fill="white"/>
<path d="M68.8902 55.5557H66.668V57.7779H68.8902V55.5557Z" fill="white"/>
<path d="M71.1128 55.5557H68.8906V57.7779H71.1128V55.5557Z" fill="white"/>
<path d="M75.5582 55.5557H73.3359V57.7779H75.5582V55.5557Z" fill="white"/>
<path d="M84.4449 55.5557H82.2227V57.7779H84.4449V55.5557Z" fill="white"/>
<path d="M88.8902 55.5557H86.668V57.7779H88.8902V55.5557Z" fill="white"/>
<path d="M93.3355 55.5557H91.1133V57.7779H93.3355V55.5557Z" fill="white"/>
<path d="M6.66753 57.7778H4.44531V60.0001H6.66753V57.7778Z" fill="white"/>
<path d="M8.89019 57.7778H6.66797V60.0001H8.89019V57.7778Z" fill="white"/>
<path d="M11.1128 57.7778H8.89062V60.0001H11.1128V57.7778Z" fill="white"/>
<path d="M15.5582 57.7778H13.3359V60.0001H15.5582V57.7778Z" fill="white"/>
<path d="M19.9996 57.7778H17.7773V60.0001H19.9996V57.7778Z" fill="white"/>
<path d="M22.2222 57.7778H20V60.0001H22.2222V57.7778Z" fill="white"/>
<path d="M28.8902 57.7778H26.668V60.0001H28.8902V57.7778Z" fill="white"/>
<path d="M31.1128 57.7778H28.8906V60.0001H31.1128V57.7778Z" fill="white"/>
<path d="M33.3355 57.7778H31.1133V60.0001H33.3355V57.7778Z" fill="white"/>
<path d="M35.5582 57.7778H33.3359V60.0001H35.5582V57.7778Z" fill="white"/>
<path d="M39.9996 57.7778H37.7773V60.0001H39.9996V57.7778Z" fill="white"/>
<path d="M44.4449 57.7778H42.2227V60.0001H44.4449V57.7778Z" fill="white"/>
<path d="M51.1128 57.7778H48.8906V60.0001H51.1128V57.7778Z" fill="white"/>
<path d="M53.3355 57.7778H51.1133V60.0001H53.3355V57.7778Z" fill="white"/>
<path d="M55.5582 57.7778H53.3359V60.0001H55.5582V57.7778Z" fill="white"/>
<path d="M57.7769 57.7778H55.5547V60.0001H57.7769V57.7778Z" fill="white"/>
<path d="M59.9996 57.7778H57.7773V60.0001H59.9996V57.7778Z" fill="white"/>
<path d="M71.1128 57.7778H68.8906V60.0001H71.1128V57.7778Z" fill="white"/>
<path d="M75.5582 57.7778H73.3359V60.0001H75.5582V57.7778Z" fill="white"/>
<path d="M77.7769 57.7778H75.5547V60.0001H77.7769V57.7778Z" fill="white"/>
<path d="M79.9996 57.7778H77.7773V60.0001H79.9996V57.7778Z" fill="white"/>
<path d="M88.8902 57.7778H86.668V60.0001H88.8902V57.7778Z" fill="white"/>
<path d="M95.5582 57.7778H93.3359V60.0001H95.5582V57.7778Z" fill="white"/>
<path d="M11.1128 60H8.89062V62.2222H11.1128V60Z" fill="white"/>
<path d="M13.3355 60H11.1133V62.2222H13.3355V60Z" fill="white"/>
<path d="M22.2222 60H20V62.2222H22.2222V60Z" fill="white"/>
<path d="M28.8902 60H26.668V62.2222H28.8902V60Z" fill="white"/>
<path d="M33.3355 60H31.1133V62.2222H33.3355V60Z" fill="white"/>
<path d="M39.9996 60H37.7773V62.2222H39.9996V60Z" fill="white"/>
<path d="M42.2222 60H40V62.2222H42.2222V60Z" fill="white"/>
<path d="M57.7769 60H55.5547V62.2222H57.7769V60Z" fill="white"/>
<path d="M62.2222 60H60V62.2222H62.2222V60Z" fill="white"/>
<path d="M64.4449 60H62.2227V62.2222H64.4449V60Z" fill="white"/>
<path d="M66.6675 60H64.4453V62.2222H66.6675V60Z" fill="white"/>
<path d="M73.3355 60H71.1133V62.2222H73.3355V60Z" fill="white"/>
<path d="M77.7769 60H75.5547V62.2222H77.7769V60Z" fill="white"/>
<path d="M82.2222 60H80V62.2222H82.2222V60Z" fill="white"/>
<path d="M84.4449 60H82.2227V62.2222H84.4449V60Z" fill="white"/>
<path d="M86.6675 60H84.4453V62.2222H86.6675V60Z" fill="white"/>
<path d="M91.1128 60H88.8906V62.2222H91.1128V60Z" fill="white"/>
<path d="M93.3355 60H91.1133V62.2222H93.3355V60Z" fill="white"/>
<path d="M95.5582 60H93.3359V62.2222H95.5582V60Z" fill="white"/>
<path d="M6.66753 62.2222H4.44531V64.4444H6.66753V62.2222Z" fill="white"/>
<path d="M8.89019 62.2222H6.66797V64.4444H8.89019V62.2222Z" fill="white"/>
<path d="M15.5582 62.2222H13.3359V64.4444H15.5582V62.2222Z" fill="white"/>
<path d="M19.9996 62.2222H17.7773V64.4444H19.9996V62.2222Z" fill="white"/>
<path d="M26.6675 62.2222H24.4453V64.4444H26.6675V62.2222Z" fill="white"/>
<path d="M35.5582 62.2222H33.3359V64.4444H35.5582V62.2222Z" fill="white"/>
<path d="M37.7769 62.2222H35.5547V64.4444H37.7769V62.2222Z" fill="white"/>
<path d="M44.4449 62.2222H42.2227V64.4444H44.4449V62.2222Z" fill="white"/>
<path d="M46.6675 62.2222H44.4453V64.4444H46.6675V62.2222Z" fill="white"/>
<path d="M51.1128 62.2222H48.8906V64.4444H51.1128V62.2222Z" fill="white"/>
<path d="M55.5582 62.2222H53.3359V64.4444H55.5582V62.2222Z" fill="white"/>
<path d="M57.7769 62.2222H55.5547V64.4444H57.7769V62.2222Z" fill="white"/>
<path d="M59.9996 62.2222H57.7773V64.4444H59.9996V62.2222Z" fill="white"/>
<path d="M62.2222 62.2222H60V64.4444H62.2222V62.2222Z" fill="white"/>
<path d="M66.6675 62.2222H64.4453V64.4444H66.6675V62.2222Z" fill="white"/>
<path d="M71.1128 62.2222H68.8906V64.4444H71.1128V62.2222Z" fill="white"/>
<path d="M73.3355 62.2222H71.1133V64.4444H73.3355V62.2222Z" fill="white"/>
<path d="M77.7769 62.2222H75.5547V64.4444H77.7769V62.2222Z" fill="white"/>
<path d="M79.9996 62.2222H77.7773V64.4444H79.9996V62.2222Z" fill="white"/>
<path d="M82.2222 62.2222H80V64.4444H82.2222V62.2222Z" fill="white"/>
<path d="M84.4449 62.2222H82.2227V64.4444H84.4449V62.2222Z" fill="white"/>
<path d="M86.6675 62.2222H84.4453V64.4444H86.6675V62.2222Z" fill="white"/>
<path d="M93.3355 62.2222H91.1133V64.4444H93.3355V62.2222Z" fill="white"/>
<path d="M95.5582 62.2222H93.3359V64.4444H95.5582V62.2222Z" fill="white"/>
<path d="M6.66753 64.4443H4.44531V66.6666H6.66753V64.4443Z" fill="white"/>
<path d="M11.1128 64.4443H8.89062V66.6666H11.1128V64.4443Z" fill="white"/>
<path d="M17.7769 64.4443H15.5547V66.6666H17.7769V64.4443Z" fill="white"/>
<path d="M26.6675 64.4443H24.4453V66.6666H26.6675V64.4443Z" fill="white"/>
<path d="M33.3355 64.4443H31.1133V66.6666H33.3355V64.4443Z" fill="white"/>
<path d="M35.5582 64.4443H33.3359V66.6666H35.5582V64.4443Z" fill="white"/>
<path d="M39.9996 64.4443H37.7773V66.6666H39.9996V64.4443Z" fill="white"/>
<path d="M42.2222 64.4443H40V66.6666H42.2222V64.4443Z" fill="white"/>
<path d="M44.4449 64.4443H42.2227V66.6666H44.4449V64.4443Z" fill="white"/>
<path d="M46.6675 64.4443H44.4453V66.6666H46.6675V64.4443Z" fill="white"/>
<path d="M48.8902 64.4443H46.668V66.6666H48.8902V64.4443Z" fill="white"/>
<path d="M51.1128 64.4443H48.8906V66.6666H51.1128V64.4443Z" fill="white"/>
<path d="M53.3355 64.4443H51.1133V66.6666H53.3355V64.4443Z" fill="white"/>
<path d="M59.9996 64.4443H57.7773V66.6666H59.9996V64.4443Z" fill="white"/>
<path d="M64.4449 64.4443H62.2227V66.6666H64.4449V64.4443Z" fill="white"/>
<path d="M66.6675 64.4443H64.4453V66.6666H66.6675V64.4443Z" fill="white"/>
<path d="M68.8902 64.4443H66.668V66.6666H68.8902V64.4443Z" fill="white"/>
<path d="M71.1128 64.4443H68.8906V66.6666H71.1128V64.4443Z" fill="white"/>
<path d="M73.3355 64.4443H71.1133V66.6666H73.3355V64.4443Z" fill="white"/>
<path d="M75.5582 64.4443H73.3359V66.6666H75.5582V64.4443Z" fill="white"/>
<path d="M77.7769 64.4443H75.5547V66.6666H77.7769V64.4443Z" fill="white"/>
<path d="M84.4449 64.4443H82.2227V66.6666H84.4449V64.4443Z" fill="white"/>
<path d="M88.8902 64.4443H86.668V66.6666H88.8902V64.4443Z" fill="white"/>
<path d="M93.3355 64.4443H91.1133V66.6666H93.3355V64.4443Z" fill="white"/>
<path d="M95.5582 64.4443H93.3359V66.6666H95.5582V64.4443Z" fill="white"/>
<path d="M6.66753 66.6665H4.44531V68.8887H6.66753V66.6665Z" fill="white"/>
<path d="M8.89019 66.6665H6.66797V68.8887H8.89019V66.6665Z" fill="white"/>
<path d="M13.3355 66.6665H11.1133V68.8887H13.3355V66.6665Z" fill="white"/>
<path d="M19.9996 66.6665H17.7773V68.8887H19.9996V66.6665Z" fill="white"/>
<path d="M28.8902 66.6665H26.668V68.8887H28.8902V66.6665Z" fill="white"/>
<path d="M31.1128 66.6665H28.8906V68.8887H31.1128V66.6665Z" fill="white"/>
<path d="M37.7769 66.6665H35.5547V68.8887H37.7769V66.6665Z" fill="white"/>
<path d="M42.2222 66.6665H40V68.8887H42.2222V66.6665Z" fill="white"/>
<path d="M44.4449 66.6665H42.2227V68.8887H44.4449V66.6665Z" fill="white"/>
<path d="M53.3355 66.6665H51.1133V68.8887H53.3355V66.6665Z" fill="white"/>
<path d="M55.5582 66.6665H53.3359V68.8887H55.5582V66.6665Z" fill="white"/>
<path d="M59.9996 66.6665H57.7773V68.8887H59.9996V66.6665Z" fill="white"/>
<path d="M64.4449 66.6665H62.2227V68.8887H64.4449V66.6665Z" fill="white"/>
<path d="M66.6675 66.6665H64.4453V68.8887H66.6675V66.6665Z" fill="white"/>
<path d="M68.8902 66.6665H66.668V68.8887H68.8902V66.6665Z" fill="white"/>
<path d="M71.1128 66.6665H68.8906V68.8887H71.1128V66.6665Z" fill="white"/>
<path d="M77.7769 66.6665H75.5547V68.8887H77.7769V66.6665Z" fill="white"/>
<path d="M79.9996 66.6665H77.7773V68.8887H79.9996V66.6665Z" fill="white"/>
<path d="M93.3355 66.6665H91.1133V68.8887H93.3355V66.6665Z" fill="white"/>
<path d="M6.66753 68.8887H4.44531V71.1109H6.66753V68.8887Z" fill="white"/>
<path d="M13.3355 68.8887H11.1133V71.1109H13.3355V68.8887Z" fill="white"/>
<path d="M15.5582 68.8887H13.3359V71.1109H15.5582V68.8887Z" fill="white"/>
<path d="M17.7769 68.8887H15.5547V71.1109H17.7769V68.8887Z" fill="white"/>
<path d="M28.8902 68.8887H26.668V71.1109H28.8902V68.8887Z" fill="white"/>
<path d="M31.1128 68.8887H28.8906V71.1109H31.1128V68.8887Z" fill="white"/>
<path d="M33.3355 68.8887H31.1133V71.1109H33.3355V68.8887Z" fill="white"/>
<path d="M35.5582 68.8887H33.3359V71.1109H35.5582V68.8887Z" fill="white"/>
<path d="M37.7769 68.8887H35.5547V71.1109H37.7769V68.8887Z" fill="white"/>
<path d="M39.9996 68.8887H37.7773V71.1109H39.9996V68.8887Z" fill="white"/>
<path d="M44.4449 68.8887H42.2227V71.1109H44.4449V68.8887Z" fill="white"/>
<path d="M46.6675 68.8887H44.4453V71.1109H46.6675V68.8887Z" fill="white"/>
<path d="M48.8902 68.8887H46.668V71.1109H48.8902V68.8887Z" fill="white"/>
<path d="M51.1128 68.8887H48.8906V71.1109H51.1128V68.8887Z" fill="white"/>
<path d="M62.2222 68.8887H60V71.1109H62.2222V68.8887Z" fill="white"/>
<path d="M82.2222 68.8887H80V71.1109H82.2222V68.8887Z" fill="white"/>
<path d="M84.4449 68.8887H82.2227V71.1109H84.4449V68.8887Z" fill="white"/>
<path d="M86.6675 68.8887H84.4453V71.1109H86.6675V68.8887Z" fill="white"/>
<path d="M91.1128 68.8887H88.8906V71.1109H91.1128V68.8887Z" fill="white"/>
<path d="M95.5582 68.8887H93.3359V71.1109H95.5582V68.8887Z" fill="white"/>
<path d="M11.1128 71.1108H8.89062V73.3331H11.1128V71.1108Z" fill="white"/>
<path d="M15.5582 71.1108H13.3359V73.3331H15.5582V71.1108Z" fill="white"/>
<path d="M17.7769 71.1108H15.5547V73.3331H17.7769V71.1108Z" fill="white"/>
<path d="M19.9996 71.1108H17.7773V73.3331H19.9996V71.1108Z" fill="white"/>
<path d="M28.8902 71.1108H26.668V73.3331H28.8902V71.1108Z" fill="white"/>
<path d="M39.9996 71.1108H37.7773V73.3331H39.9996V71.1108Z" fill="white"/>
<path d="M44.4449 71.1108H42.2227V73.3331H44.4449V71.1108Z" fill="white"/>
<path d="M51.1128 71.1108H48.8906V73.3331H51.1128V71.1108Z" fill="white"/>
<path d="M53.3355 71.1108H51.1133V73.3331H53.3355V71.1108Z" fill="white"/>
<path d="M55.5582 71.1108H53.3359V73.3331H55.5582V71.1108Z" fill="white"/>
<path d="M62.2222 71.1108H60V73.3331H62.2222V71.1108Z" fill="white"/>
<path d="M64.4449 71.1108H62.2227V73.3331H64.4449V71.1108Z" fill="white"/>
<path d="M66.6675 71.1108H64.4453V73.3331H66.6675V71.1108Z" fill="white"/>
<path d="M79.9996 71.1108H77.7773V73.3331H79.9996V71.1108Z" fill="white"/>
<path d="M86.6675 71.1108H84.4453V73.3331H86.6675V71.1108Z" fill="white"/>
<path d="M88.8902 71.1108H86.668V73.3331H88.8902V71.1108Z" fill="white"/>
<path d="M93.3355 71.1108H91.1133V73.3331H93.3355V71.1108Z" fill="white"/>
<path d="M95.5582 71.1108H93.3359V73.3331H95.5582V71.1108Z" fill="white"/>
<path d="M11.1128 73.333H8.89062V75.5552H11.1128V73.333Z" fill="white"/>
<path d="M13.3355 73.333H11.1133V75.5552H13.3355V73.333Z" fill="white"/>
<path d="M22.2222 73.333H20V75.5552H22.2222V73.333Z" fill="white"/>
<path d="M24.4449 73.333H22.2227V75.5552H24.4449V73.333Z" fill="white"/>
<path d="M26.6675 73.333H24.4453V75.5552H26.6675V73.333Z" fill="white"/>
<path d="M28.8902 73.333H26.668V75.5552H28.8902V73.333Z" fill="white"/>
<path d="M31.1128 73.333H28.8906V75.5552H31.1128V73.333Z" fill="white"/>
<path d="M35.5582 73.333H33.3359V75.5552H35.5582V73.333Z" fill="white"/>
<path d="M37.7769 73.333H35.5547V75.5552H37.7769V73.333Z" fill="white"/>
<path d="M44.4449 73.333H42.2227V75.5552H44.4449V73.333Z" fill="white"/>
<path d="M46.6675 73.333H44.4453V75.5552H46.6675V73.333Z" fill="white"/>
<path d="M53.3355 73.333H51.1133V75.5552H53.3355V73.333Z" fill="white"/>
<path d="M55.5582 73.333H53.3359V75.5552H55.5582V73.333Z" fill="white"/>
<path d="M59.9996 73.333H57.7773V75.5552H59.9996V73.333Z" fill="white"/>
<path d="M66.6675 73.333H64.4453V75.5552H66.6675V73.333Z" fill="white"/>
<path d="M68.8902 73.333H66.668V75.5552H68.8902V73.333Z" fill="white"/>
<path d="M71.1128 73.333H68.8906V75.5552H71.1128V73.333Z" fill="white"/>
<path d="M73.3355 73.333H71.1133V75.5552H73.3355V73.333Z" fill="white"/>
<path d="M79.9996 73.333H77.7773V75.5552H79.9996V73.333Z" fill="white"/>
<path d="M86.6675 73.333H84.4453V75.5552H86.6675V73.333Z" fill="white"/>
<path d="M93.3355 73.333H91.1133V75.5552H93.3355V73.333Z" fill="white"/>
<path d="M95.5582 73.333H93.3359V75.5552H95.5582V73.333Z" fill="white"/>
<path d="M6.66753 75.5557H4.44531V77.7779H6.66753V75.5557Z" fill="white"/>
<path d="M8.89019 75.5557H6.66797V77.7779H8.89019V75.5557Z" fill="white"/>
<path d="M17.7769 75.5557H15.5547V77.7779H17.7769V75.5557Z" fill="white"/>
<path d="M19.9996 75.5557H17.7773V77.7779H19.9996V75.5557Z" fill="white"/>
<path d="M26.6675 75.5557H24.4453V77.7779H26.6675V75.5557Z" fill="white"/>
<path d="M31.1128 75.5557H28.8906V77.7779H31.1128V75.5557Z" fill="white"/>
<path d="M33.3355 75.5557H31.1133V77.7779H33.3355V75.5557Z" fill="white"/>
<path d="M35.5582 75.5557H33.3359V77.7779H35.5582V75.5557Z" fill="white"/>
<path d="M37.7769 75.5557H35.5547V77.7779H37.7769V75.5557Z" fill="white"/>
<path d="M39.9996 75.5557H37.7773V77.7779H39.9996V75.5557Z" fill="white"/>
<path d="M44.4449 75.5557H42.2227V77.7779H44.4449V75.5557Z" fill="white"/>
<path d="M48.8902 75.5557H46.668V77.7779H48.8902V75.5557Z" fill="white"/>
<path d="M51.1128 75.5557H48.8906V77.7779H51.1128V75.5557Z" fill="white"/>
<path d="M53.3355 75.5557H51.1133V77.7779H53.3355V75.5557Z" fill="white"/>
<path d="M55.5582 75.5557H53.3359V77.7779H55.5582V75.5557Z" fill="white"/>
<path d="M57.7769 75.5557H55.5547V77.7779H57.7769V75.5557Z" fill="white"/>
<path d="M59.9996 75.5557H57.7773V77.7779H59.9996V75.5557Z" fill="white"/>
<path d="M71.1128 75.5557H68.8906V77.7779H71.1128V75.5557Z" fill="white"/>
<path d="M77.7769 75.5557H75.5547V77.7779H77.7769V75.5557Z" fill="white"/>
<path d="M79.9996 75.5557H77.7773V77.7779H79.9996V75.5557Z" fill="white"/>
<path d="M82.2222 75.5557H80V77.7779H82.2222V75.5557Z" fill="white"/>
<path d="M84.4449 75.5557H82.2227V77.7779H84.4449V75.5557Z" fill="white"/>
<path d="M86.6675 75.5557H84.4453V77.7779H86.6675V75.5557Z" fill="white"/>
<path d="M88.8902 75.5557H86.668V77.7779H88.8902V75.5557Z" fill="white"/>
<path d="M93.3355 75.5557H91.1133V77.7779H93.3355V75.5557Z" fill="white"/>
<path d="M95.5582 75.5557H93.3359V77.7779H95.5582V75.5557Z" fill="white"/>
<path d="M24.4449 77.7778H22.2227V80.0001H24.4449V77.7778Z" fill="white"/>
<path d="M26.6675 77.7778H24.4453V80.0001H26.6675V77.7778Z" fill="white"/>
<path d="M31.1128 77.7778H28.8906V80.0001H31.1128V77.7778Z" fill="white"/>
<path d="M33.3355 77.7778H31.1133V80.0001H33.3355V77.7778Z" fill="white"/>
<path d="M35.5582 77.7778H33.3359V80.0001H35.5582V77.7778Z" fill="white"/>
<path d="M46.6675 77.7778H44.4453V80.0001H46.6675V77.7778Z" fill="white"/>
<path d="M53.3355 77.7778H51.1133V80.0001H53.3355V77.7778Z" fill="white"/>
<path d="M57.7769 77.7778H55.5547V80.0001H57.7769V77.7778Z" fill="white"/>
<path d="M62.2222 77.7778H60V80.0001H62.2222V77.7778Z" fill="white"/>
<path d="M66.6675 77.7778H64.4453V80.0001H66.6675V77.7778Z" fill="white"/>
<path d="M68.8902 77.7778H66.668V80.0001H68.8902V77.7778Z" fill="white"/>
<path d="M71.1128 77.7778H68.8906V80.0001H71.1128V77.7778Z" fill="white"/>
<path d="M73.3355 77.7778H71.1133V80.0001H73.3355V77.7778Z" fill="white"/>
<path d="M75.5582 77.7778H73.3359V80.0001H75.5582V77.7778Z" fill="white"/>
<path d="M77.7769 77.7778H75.5547V80.0001H77.7769V77.7778Z" fill="white"/>
<path d="M86.6675 77.7778H84.4453V80.0001H86.6675V77.7778Z" fill="white"/>
<path d="M88.8902 77.7778H86.668V80.0001H88.8902V77.7778Z" fill="white"/>
<path d="M91.1128 77.7778H88.8906V80.0001H91.1128V77.7778Z" fill="white"/>
<path d="M95.5582 77.7778H93.3359V80.0001H95.5582V77.7778Z" fill="white"/>
<path d="M24.4449 80H22.2227V82.2222H24.4449V80Z" fill="white"/>
<path d="M35.5582 80H33.3359V82.2222H35.5582V80Z" fill="white"/>
<path d="M37.7769 80H35.5547V82.2222H37.7769V80Z" fill="white"/>
<path d="M44.4449 80H42.2227V82.2222H44.4449V80Z" fill="white"/>
<path d="M51.1128 80H48.8906V82.2222H51.1128V80Z" fill="white"/>
<path d="M57.7769 80H55.5547V82.2222H57.7769V80Z" fill="white"/>
<path d="M66.6675 80H64.4453V82.2222H66.6675V80Z" fill="white"/>
<path d="M68.8902 80H66.668V82.2222H68.8902V80Z" fill="white"/>
<path d="M73.3355 80H71.1133V82.2222H73.3355V80Z" fill="white"/>
<path d="M75.5582 80H73.3359V82.2222H75.5582V80Z" fill="white"/>
<path d="M77.7769 80H75.5547V82.2222H77.7769V80Z" fill="white"/>
<path d="M82.2222 80H80V82.2222H82.2222V80Z" fill="white"/>
<path d="M86.6675 80H84.4453V82.2222H86.6675V80Z" fill="white"/>
<path d="M88.8902 80H86.668V82.2222H88.8902V80Z" fill="white"/>
<path d="M95.5582 80H93.3359V82.2222H95.5582V80Z" fill="white"/>
<path d="M26.6675 82.2222H24.4453V84.4444H26.6675V82.2222Z" fill="white"/>
<path d="M31.1128 82.2222H28.8906V84.4444H31.1128V82.2222Z" fill="white"/>
<path d="M37.7769 82.2222H35.5547V84.4444H37.7769V82.2222Z" fill="white"/>
<path d="M39.9996 82.2222H37.7773V84.4444H39.9996V82.2222Z" fill="white"/>
<path d="M42.2222 82.2222H40V84.4444H42.2222V82.2222Z" fill="white"/>
<path d="M44.4449 82.2222H42.2227V84.4444H44.4449V82.2222Z" fill="white"/>
<path d="M46.6675 82.2222H44.4453V84.4444H46.6675V82.2222Z" fill="white"/>
<path d="M55.5582 82.2222H53.3359V84.4444H55.5582V82.2222Z" fill="white"/>
<path d="M57.7769 82.2222H55.5547V84.4444H57.7769V82.2222Z" fill="white"/>
<path d="M64.4449 82.2222H62.2227V84.4444H64.4449V82.2222Z" fill="white"/>
<path d="M66.6675 82.2222H64.4453V84.4444H66.6675V82.2222Z" fill="white"/>
<path d="M68.8902 82.2222H66.668V84.4444H68.8902V82.2222Z" fill="white"/>
<path d="M75.5582 82.2222H73.3359V84.4444H75.5582V82.2222Z" fill="white"/>
<path d="M77.7769 82.2222H75.5547V84.4444H77.7769V82.2222Z" fill="white"/>
<path d="M86.6675 82.2222H84.4453V84.4444H86.6675V82.2222Z" fill="white"/>
<path d="M88.8902 82.2222H86.668V84.4444H88.8902V82.2222Z" fill="white"/>
<path d="M93.3355 82.2222H91.1133V84.4444H93.3355V82.2222Z" fill="white"/>
<path d="M95.5582 82.2222H93.3359V84.4444H95.5582V82.2222Z" fill="white"/>
<path d="M24.4449 84.4443H22.2227V86.6666H24.4449V84.4443Z" fill="white"/>
<path d="M28.8902 84.4443H26.668V86.6666H28.8902V84.4443Z" fill="white"/>
<path d="M31.1128 84.4443H28.8906V86.6666H31.1128V84.4443Z" fill="white"/>
<path d="M33.3355 84.4443H31.1133V86.6666H33.3355V84.4443Z" fill="white"/>
<path d="M37.7769 84.4443H35.5547V86.6666H37.7769V84.4443Z" fill="white"/>
<path d="M39.9996 84.4443H37.7773V86.6666H39.9996V84.4443Z" fill="white"/>
<path d="M46.6675 84.4443H44.4453V86.6666H46.6675V84.4443Z" fill="white"/>
<path d="M48.8902 84.4443H46.668V86.6666H48.8902V84.4443Z" fill="white"/>
<path d="M51.1128 84.4443H48.8906V86.6666H51.1128V84.4443Z" fill="white"/>
<path d="M55.5582 84.4443H53.3359V86.6666H55.5582V84.4443Z" fill="white"/>
<path d="M59.9996 84.4443H57.7773V86.6666H59.9996V84.4443Z" fill="white"/>
<path d="M62.2222 84.4443H60V86.6666H62.2222V84.4443Z" fill="white"/>
<path d="M64.4449 84.4443H62.2227V86.6666H64.4449V84.4443Z" fill="white"/>
<path d="M66.6675 84.4443H64.4453V86.6666H66.6675V84.4443Z" fill="white"/>
<path d="M75.5582 84.4443H73.3359V86.6666H75.5582V84.4443Z" fill="white"/>
<path d="M77.7769 84.4443H75.5547V86.6666H77.7769V84.4443Z" fill="white"/>
<path d="M79.9996 84.4443H77.7773V86.6666H79.9996V84.4443Z" fill="white"/>
<path d="M82.2222 84.4443H80V86.6666H82.2222V84.4443Z" fill="white"/>
<path d="M84.4449 84.4443H82.2227V86.6666H84.4449V84.4443Z" fill="white"/>
<path d="M86.6675 84.4443H84.4453V86.6666H86.6675V84.4443Z" fill="white"/>
<path d="M93.3355 84.4443H91.1133V86.6666H93.3355V84.4443Z" fill="white"/>
<path d="M31.1128 86.6665H28.8906V88.8887H31.1128V86.6665Z" fill="white"/>
<path d="M33.3355 86.6665H31.1133V88.8887H33.3355V86.6665Z" fill="white"/>
<path d="M35.5582 86.6665H33.3359V88.8887H35.5582V86.6665Z" fill="white"/>
<path d="M44.4449 86.6665H42.2227V88.8887H44.4449V86.6665Z" fill="white"/>
<path d="M57.7769 86.6665H55.5547V88.8887H57.7769V86.6665Z" fill="white"/>
<path d="M66.6675 86.6665H64.4453V88.8887H66.6675V86.6665Z" fill="white"/>
<path d="M68.8902 86.6665H66.668V88.8887H68.8902V86.6665Z" fill="white"/>
<path d="M73.3355 86.6665H71.1133V88.8887H73.3355V86.6665Z" fill="white"/>
<path d="M75.5582 86.6665H73.3359V88.8887H75.5582V86.6665Z" fill="white"/>
<path d="M77.7769 86.6665H75.5547V88.8887H77.7769V86.6665Z" fill="white"/>
<path d="M84.4449 86.6665H82.2227V88.8887H84.4449V86.6665Z" fill="white"/>
<path d="M91.1128 86.6665H88.8906V88.8887H91.1128V86.6665Z" fill="white"/>
<path d="M93.3355 86.6665H91.1133V88.8887H93.3355V86.6665Z" fill="white"/>
<path d="M26.6675 88.8887H24.4453V91.1109H26.6675V88.8887Z" fill="white"/>
<path d="M28.8902 88.8887H26.668V91.1109H28.8902V88.8887Z" fill="white"/>
<path d="M35.5582 88.8887H33.3359V91.1109H35.5582V88.8887Z" fill="white"/>
<path d="M39.9996 88.8887H37.7773V91.1109H39.9996V88.8887Z" fill="white"/>
<path d="M42.2222 88.8887H40V91.1109H42.2222V88.8887Z" fill="white"/>
<path d="M46.6675 88.8887H44.4453V91.1109H46.6675V88.8887Z" fill="white"/>
<path d="M51.1128 88.8887H48.8906V91.1109H51.1128V88.8887Z" fill="white"/>
<path d="M55.5582 88.8887H53.3359V91.1109H55.5582V88.8887Z" fill="white"/>
<path d="M57.7769 88.8887H55.5547V91.1109H57.7769V88.8887Z" fill="white"/>
<path d="M59.9996 88.8887H57.7773V91.1109H59.9996V88.8887Z" fill="white"/>
<path d="M62.2222 88.8887H60V91.1109H62.2222V88.8887Z" fill="white"/>
<path d="M64.4449 88.8887H62.2227V91.1109H64.4449V88.8887Z" fill="white"/>
<path d="M66.6675 88.8887H64.4453V91.1109H66.6675V88.8887Z" fill="white"/>
<path d="M68.8902 88.8887H66.668V91.1109H68.8902V88.8887Z" fill="white"/>
<path d="M71.1128 88.8887H68.8906V91.1109H71.1128V88.8887Z" fill="white"/>
<path d="M75.5582 88.8887H73.3359V91.1109H75.5582V88.8887Z" fill="white"/>
<path d="M79.9996 88.8887H77.7773V91.1109H79.9996V88.8887Z" fill="white"/>
<path d="M88.8902 88.8887H86.668V91.1109H88.8902V88.8887Z" fill="white"/>
<path d="M95.5582 88.8887H93.3359V91.1109H95.5582V88.8887Z" fill="white"/>
<path d="M26.6675 91.1108H24.4453V93.3331H26.6675V91.1108Z" fill="white"/>
<path d="M35.5582 91.1108H33.3359V93.3331H35.5582V91.1108Z" fill="white"/>
<path d="M39.9996 91.1108H37.7773V93.3331H39.9996V91.1108Z" fill="white"/>
<path d="M44.4449 91.1108H42.2227V93.3331H44.4449V91.1108Z" fill="white"/>
<path d="M48.8902 91.1108H46.668V93.3331H48.8902V91.1108Z" fill="white"/>
<path d="M51.1128 91.1108H48.8906V93.3331H51.1128V91.1108Z" fill="white"/>
<path d="M53.3355 91.1108H51.1133V93.3331H53.3355V91.1108Z" fill="white"/>
<path d="M59.9996 91.1108H57.7773V93.3331H59.9996V91.1108Z" fill="white"/>
<path d="M64.4449 91.1108H62.2227V93.3331H64.4449V91.1108Z" fill="white"/>
<path d="M66.6675 91.1108H64.4453V93.3331H66.6675V91.1108Z" fill="white"/>
<path d="M71.1128 91.1108H68.8906V93.3331H71.1128V91.1108Z" fill="white"/>
<path d="M73.3355 91.1108H71.1133V93.3331H73.3355V91.1108Z" fill="white"/>
<path d="M75.5582 91.1108H73.3359V93.3331H75.5582V91.1108Z" fill="white"/>
<path d="M77.7769 91.1108H75.5547V93.3331H77.7769V91.1108Z" fill="white"/>
<path d="M79.9996 91.1108H77.7773V93.3331H79.9996V91.1108Z" fill="white"/>
<path d="M82.2222 91.1108H80V93.3331H82.2222V91.1108Z" fill="white"/>
<path d="M84.4449 91.1108H82.2227V93.3331H84.4449V91.1108Z" fill="white"/>
<path d="M88.8902 91.1108H86.668V93.3331H88.8902V91.1108Z" fill="white"/>
<path d="M93.3355 91.1108H91.1133V93.3331H93.3355V91.1108Z" fill="white"/>
<path d="M95.5582 91.1108H93.3359V93.3331H95.5582V91.1108Z" fill="white"/>
<path d="M24.4449 93.333H22.2227V95.5552H24.4449V93.333Z" fill="white"/>
<path d="M28.8902 93.333H26.668V95.5552H28.8902V93.333Z" fill="white"/>
<path d="M31.1128 93.333H28.8906V95.5552H31.1128V93.333Z" fill="white"/>
<path d="M33.3355 93.333H31.1133V95.5552H33.3355V93.333Z" fill="white"/>
<path d="M35.5582 93.333H33.3359V95.5552H35.5582V93.333Z" fill="white"/>
<path d="M42.2222 93.333H40V95.5552H42.2222V93.333Z" fill="white"/>
<path d="M44.4449 93.333H42.2227V95.5552H44.4449V93.333Z" fill="white"/>
<path d="M51.1128 93.333H48.8906V95.5552H51.1128V93.333Z" fill="white"/>
<path d="M53.3355 93.333H51.1133V95.5552H53.3355V93.333Z" fill="white"/>
<path d="M55.5582 93.333H53.3359V95.5552H55.5582V93.333Z" fill="white"/>
<path d="M57.7769 93.333H55.5547V95.5552H57.7769V93.333Z" fill="white"/>
<path d="M59.9996 93.333H57.7773V95.5552H59.9996V93.333Z" fill="white"/>
<path d="M68.8902 93.333H66.668V95.5552H68.8902V93.333Z" fill="white"/>
<path d="M71.1128 93.333H68.8906V95.5552H71.1128V93.333Z" fill="white"/>
<path d="M77.7769 93.333H75.5547V95.5552H77.7769V93.333Z" fill="white"/>
<path d="M84.4449 93.333H82.2227V95.5552H84.4449V93.333Z" fill="white"/>
<path d="M86.6675 93.333H84.4453V95.5552H86.6675V93.333Z" fill="white"/>
<path d="M88.8902 93.333H86.668V95.5552H88.8902V93.333Z" fill="white"/>
<path d="M93.3355 93.333H91.1133V95.5552H93.3355V93.333Z" fill="white"/>
</mask>
<g mask="url(#mask0_1303_4891)">
<path d="M95.5564 4.44434H4.44531V95.5555H95.5564V4.44434Z" fill="url(#paint0_linear_1303_4891)"/>
</g>
<path d="M17.6675 4.44434H6.77865H4.44531V6.77767V17.6666V19.9999H6.77865H17.6675H20.0009V17.6666V6.77767V4.44434H17.6675ZM17.6675 17.6666H6.77865V6.77767H17.6675V17.6666Z" fill="black"/>
<path d="M93.2222 4.44434H82.3333H80V6.77767V17.6666V19.9999H82.3333H93.2222H95.5556V17.6666V6.77767V4.44434H93.2222ZM93.2222 17.6666H82.3333V6.77767H93.2222V17.6666Z" fill="black"/>
<path d="M17.6675 80H6.77865H4.44531V82.3333V93.2222V95.5556H6.77865H17.6675H20.0009V93.2222V82.3333V80H17.6675ZM17.6675 93.2222H6.77865V82.3333H17.6675V93.2222Z" fill="black"/>
<path d="M15.5573 8.88867H8.89062V15.5553H15.5573V8.88867Z" fill="#144059"/>
<path d="M91.112 8.88867H84.4453V15.5553H91.112V8.88867Z" fill="#144059"/>
<path d="M15.5573 84.4443H8.89062V91.111H15.5573V84.4443Z" fill="#144059"/>
</g>
<defs>
<linearGradient id="paint0_linear_1303_4891" x1="4.44531" y1="4.44434" x2="4.44531" y2="95.5555" gradientUnits="userSpaceOnUse">
<stop offset="0.05" stop-color="#144059"/>
<stop offset="0.95"/>
</linearGradient>
<clipPath id="clip0_1303_4891">
<rect width="100" height="100" fill="white"/>
</clipPath>
</defs>
</svg>
