<svg width="37" height="37" viewBox="0 0 37 37" fill="none" xmlns="http://www.w3.org/2000/svg">
<path fill-rule="evenodd" clip-rule="evenodd" d="M5.1993 15.7896H3.71094V6.89864C3.71094 6.0773 4.38814 5.41162 5.18739 5.41162H32.0017C32.3963 5.4108 32.7748 5.56773 33.0524 5.84725C33.3299 6.12678 33.4833 6.50553 33.4781 6.89864V15.7896H31.9897V30.6168C31.9922 31.4323 31.3305 32.0955 30.5118 32.0979H6.67724C5.85852 32.0955 5.19683 31.4324 5.1993 30.6168V15.7896ZM29.0128 15.7899H8.17578V29.1331H29.0128V15.7899ZM6.6875 8.37668V12.8244H30.5012V8.37668H6.6875ZM14.1309 18.7549H23.061V21.72H14.1309V18.7549Z" fill="#8A999C"/>
</svg>
