<svg width="31" height="27" viewBox="0 0 31 27" fill="none" xmlns="http://www.w3.org/2000/svg">
<path fill-rule="evenodd" clip-rule="evenodd" d="M20.5789 0.730469L25.3581 8.96287H30.4527V11.9231H28.7158L27.5891 25.367C27.5249 26.1338 26.8805 26.7238 26.1067 26.7243H5.03155C4.25776 26.7238 3.61337 26.1338 3.54915 25.367L2.42097 11.9231H0.685547V8.96287H5.77871L10.5593 0.730469L13.1372 2.21058L9.21681 8.96287H21.92L18.0011 2.21058L20.5789 0.730469L20.5789 0.730469ZM25.7288 11.9229H5.4082L6.40094 23.7638H24.736L25.7288 11.9229ZM17.0568 14.8835V20.804H14.0801V14.8835H17.0568ZM11.1037 14.8835V20.804H8.12695V14.8835H11.1037ZM23.0119 14.8835V20.804H20.0352V14.8835H23.0119Z" fill="#8A999C"/>
</svg>
