<svg width="40" height="41" viewBox="0 0 40 41" fill="none" xmlns="http://www.w3.org/2000/svg">
<path fill-rule="evenodd" clip-rule="evenodd" d="M0 4.14942C0 1.94028 1.79086 0.149414 4 0.149414H36C38.2091 0.149414 40 1.94028 40 4.14941V36.3979C40 38.607 38.2091 40.3979 36 40.3979H4C1.79086 40.3979 0 38.607 0 36.3979V4.14942Z" fill="white"/>
<path fill-rule="evenodd" clip-rule="evenodd" d="M18.7093 20.5337L11.5546 7.49694C11.5135 7.42205 11.488 7.34006 11.4796 7.25563C11.4712 7.1712 11.4801 7.086 11.5057 7.00489C11.5574 6.84108 11.6741 6.70387 11.8303 6.62345C11.9864 6.54303 12.1691 6.52599 12.3382 6.57607C12.4219 6.60087 12.4998 6.6414 12.5673 6.69535C12.6349 6.7493 12.6908 6.81562 12.7319 6.89051L19.8873 19.9273L20.9019 19.4042C21.2112 19.2449 21.5498 19.1462 21.8984 19.1137C22.2471 19.0812 22.5989 19.1156 22.9338 19.2149C23.2687 19.3141 23.5802 19.4763 23.8504 19.6922C24.1206 19.9081 24.3443 20.1734 24.5086 20.473L24.9406 21.2603L29.5206 27.7535L23.6953 30.7534L21.6773 26.8894L20.4879 27.4726L22.5179 31.3605L20.0206 32.6463L17.0239 25.3368L16.5926 24.5502C16.4282 24.2506 16.3263 23.9226 16.2927 23.5849C16.2591 23.2472 16.2945 22.9064 16.3969 22.5819C16.4993 22.2575 16.6667 21.9558 16.8894 21.694C17.1122 21.4322 17.386 21.2155 17.6953 21.0562L18.7093 20.5337ZM21.5273 20.5454L18.3206 22.1968C18.166 22.2764 18.0291 22.3847 17.9177 22.5156C17.8063 22.6465 17.7226 22.7974 17.6714 22.9596C17.6202 23.1218 17.6025 23.2922 17.6193 23.4611C17.6361 23.63 17.6871 23.794 17.7693 23.9437L18.2006 24.7304L23.7626 21.8654L23.3306 21.0795C23.2484 20.9297 23.1366 20.797 23.0014 20.6891C22.8663 20.5812 22.7106 20.5002 22.5431 20.4506C22.3757 20.401 22.1998 20.3838 22.0255 20.4001C21.8512 20.4163 21.6819 20.4657 21.5273 20.5454Z" fill="#144059"/>
<path d="M15.8466 26.8361C15.7335 26.7045 15.5711 26.6218 15.3951 26.6062C15.2191 26.5906 15.0439 26.6433 14.908 26.7528H14.9093L14.902 26.758L14.86 26.789C14.8003 26.8324 14.7394 26.8742 14.6773 26.9143C14.512 27.0208 14.2653 27.1662 13.948 27.3121C13.1323 27.6919 12.2396 27.8911 11.3346 27.8953C11.1578 27.8953 10.9883 27.9633 10.8632 28.0845C10.7382 28.2056 10.668 28.3699 10.668 28.5411C10.668 28.7124 10.7382 28.8767 10.8632 28.9978C10.9883 29.1189 11.1578 29.187 11.3346 29.187C12.438 29.1828 13.5265 28.9408 14.5213 28.4785C14.8316 28.3362 15.131 28.1726 15.4173 27.9889C15.5245 27.9195 15.629 27.8462 15.7306 27.7694L15.7506 27.7545L15.7573 27.7493L15.7593 27.7468H15.7606L15.7613 27.7455C15.897 27.6358 15.9823 27.4784 15.9983 27.3079C16.0143 27.1374 15.9597 26.9677 15.8466 26.8361ZM17.2226 30.1202C17.2712 30.1908 17.305 30.2699 17.322 30.3531C17.3391 30.4363 17.339 30.522 17.3218 30.6051C17.3047 30.6883 17.2708 30.7674 17.2221 30.8379C17.1734 30.9084 17.1108 30.9689 17.038 31.016L17.0366 31.0173L17.034 31.0186L17.0273 31.0224L17.0066 31.0353C16.8912 31.1065 16.7741 31.1749 16.6553 31.2407C16.4213 31.3705 16.0886 31.543 15.6886 31.7148C14.902 32.0538 13.802 32.4161 12.668 32.4161C12.4912 32.4161 12.3216 32.3481 12.1966 32.227C12.0715 32.1059 12.0013 31.9416 12.0013 31.7703C12.0013 31.599 12.0715 31.4347 12.1966 31.3136C12.3216 31.1925 12.4912 31.1245 12.668 31.1245C13.5333 31.1245 14.4346 30.8409 15.1473 30.5342C15.5186 30.3737 15.8789 30.1903 16.226 29.9852C16.2454 29.9741 16.2645 29.9625 16.2833 29.9503L16.2966 29.9426L16.298 29.9413C16.3708 29.8942 16.4525 29.8615 16.5384 29.845C16.6243 29.8285 16.7127 29.8286 16.7986 29.8452C16.8844 29.8618 16.9661 29.8946 17.0388 29.9418C17.1116 29.989 17.1741 30.0496 17.2226 30.1202Z" fill="#144059"/>
</svg>
