<svg width="58" height="58" viewBox="0 0 58 58" fill="none" xmlns="http://www.w3.org/2000/svg">
<rect x="0.587891" y="0.586914" width="57.1745" height="57.1745" rx="2" fill="#FFBC00" fill-opacity="0.2"/>
<path fill-rule="evenodd" clip-rule="evenodd" d="M28.7073 29.5347L21.5526 16.4979C21.5115 16.423 21.4861 16.341 21.4777 16.2566C21.4693 16.1722 21.4781 16.087 21.5037 16.0059C21.5554 15.8421 21.6722 15.7048 21.8283 15.6244C21.9844 15.544 22.1671 15.527 22.3362 15.5771C22.42 15.6018 22.4978 15.6424 22.5654 15.6963C22.633 15.7503 22.6889 15.8166 22.73 15.8915L29.8853 28.9283L30.9 28.4051C31.2092 28.2459 31.5479 28.1472 31.8965 28.1147C32.2451 28.0822 32.5969 28.1166 32.9319 28.2158C33.2668 28.3151 33.5782 28.4773 33.8484 28.6932C34.1186 28.909 34.3423 29.1744 34.5066 29.474L34.9387 30.2613L39.5187 36.7545L33.6933 39.7544L31.6753 35.8904L30.486 36.4735L32.516 40.3615L30.0186 41.6473L27.022 34.3378L26.5906 33.5511C26.4262 33.2516 26.3243 32.9236 26.2907 32.5859C26.2571 32.2482 26.2926 31.9074 26.395 31.5829C26.4973 31.2585 26.6647 30.9567 26.8875 30.695C27.1103 30.4332 27.3841 30.2165 27.6933 30.0572L28.7073 29.5347ZM31.5253 29.5463L28.3186 31.1977C28.164 31.2774 28.0271 31.3857 27.9157 31.5166C27.8043 31.6475 27.7207 31.7984 27.6695 31.9606C27.6183 32.1228 27.6006 32.2932 27.6174 32.4621C27.6341 32.6309 27.6851 32.7949 27.7673 32.9447L28.1986 33.7313L33.7606 30.8664L33.3286 30.0804C33.2464 29.9307 33.1346 29.798 32.9995 29.6901C32.8644 29.5822 32.7086 29.5011 32.5412 29.4515C32.3737 29.4019 32.1978 29.3848 32.0235 29.4011C31.8492 29.4173 31.6799 29.4667 31.5253 29.5463Z" fill="#FFBC00"/>
<path d="M25.8447 35.8371C25.7316 35.7055 25.5692 35.6228 25.3932 35.6072C25.2171 35.5916 25.0419 35.6443 24.906 35.7538H24.9073L24.9 35.759L24.858 35.79C24.7984 35.8334 24.7374 35.8752 24.6753 35.9153C24.51 36.0218 24.2633 36.1671 23.946 36.3131C23.1303 36.6929 22.2377 36.8921 21.3327 36.8963C21.1559 36.8963 20.9863 36.9643 20.8613 37.0854C20.7363 37.2066 20.666 37.3708 20.666 37.5421C20.666 37.7134 20.7363 37.8777 20.8613 37.9988C20.9863 38.1199 21.1559 38.1879 21.3327 38.1879C22.436 38.1838 23.5246 37.9418 24.5193 37.4795C24.8297 37.3371 25.1291 37.1735 25.4153 36.9899C25.5225 36.9205 25.627 36.8472 25.7287 36.7703L25.7487 36.7555L25.7553 36.7503L25.7573 36.7477H25.7587L25.7593 36.7464C25.8951 36.6368 25.9803 36.4794 25.9963 36.3089C26.0123 36.1384 25.9578 35.9687 25.8447 35.8371ZM27.2207 39.1212C27.2693 39.1917 27.3031 39.2709 27.3201 39.3541C27.3371 39.4373 27.337 39.5229 27.3199 39.6061C27.3027 39.6893 27.2688 39.7684 27.2201 39.8389C27.1714 39.9094 27.1089 39.9699 27.036 40.0169L27.0347 40.0182L27.032 40.0195L27.0253 40.0234L27.0047 40.0363C26.8893 40.1074 26.7721 40.1759 26.6533 40.2417C26.4193 40.3715 26.0867 40.5439 25.6867 40.7157C24.9 41.0548 23.8 41.4171 22.666 41.4171C22.4892 41.4171 22.3196 41.3491 22.1946 41.228C22.0696 41.1068 21.9993 40.9426 21.9993 40.7713C21.9993 40.6 22.0696 40.4357 22.1946 40.3146C22.3196 40.1935 22.4892 40.1254 22.666 40.1254C23.5313 40.1254 24.4327 39.8419 25.1453 39.5352C25.5166 39.3747 25.8769 39.1913 26.224 38.9862C26.2435 38.9751 26.2626 38.9635 26.2813 38.9513L26.2947 38.9436L26.296 38.9423C26.3689 38.8952 26.4505 38.8625 26.5364 38.846C26.6223 38.8295 26.7107 38.8296 26.7966 38.8462C26.8825 38.8628 26.9641 38.8956 27.0369 38.9428C27.1096 38.99 27.1721 39.0506 27.2207 39.1212Z" fill="#FFBC00"/>
</svg>
