<svg width="48" height="48" viewBox="0 0 48 48" fill="none" xmlns="http://www.w3.org/2000/svg">
<path opacity="0.25" fill-rule="evenodd" clip-rule="evenodd" d="M0 4C0 1.79086 1.79086 0 4 0H44C46.2091 0 48 1.79086 48 4V44C48 46.2091 46.2091 48 44 48H4C1.79086 48 0 46.2091 0 44V4Z" fill="#536DE6"/>
<path d="M15.1523 14.1523V20.5979H27.2229V14.1523H15.1523ZM32.0273 20.7148V23.4104H33.7854V20.7148H32.0273ZM20.6302 21.6523L20.1223 23.176H22.253L21.7451 21.6523H20.6302ZM11.4023 24.2305V25.2854H36.5979V24.2305H11.4023ZM12.2229 26.3398V37.0626H13.2773V29.7811L16.7186 26.3398H15.2272L13.2773 28.2897V26.3398H12.2229ZM29.2148 26.3398V29.0354H34.7229V26.3398H29.2148ZM32.1019 26.7501C32.2616 26.7501 32.4146 26.7995 32.5275 26.8874C32.6404 26.9753 32.7038 27.0945 32.7038 27.2189C32.7038 27.3432 32.6404 27.4624 32.5275 27.5503C32.4146 27.6382 32.2616 27.6876 32.1019 27.6876C31.9423 27.6876 31.7892 27.6382 31.6764 27.5503C31.5635 27.4624 31.5001 27.3432 31.5001 27.2189C31.5001 27.0946 31.5635 26.9753 31.6764 26.8874C31.7892 26.7995 31.9423 26.7501 32.1019 26.7501ZM29.2148 30.0898V32.7854H34.7229V30.0898H29.2148ZM32.1019 30.5001C32.2616 30.5001 32.4146 30.5495 32.5275 30.6374C32.6404 30.7253 32.7038 30.8445 32.7038 30.9689C32.7038 31.0932 32.6404 31.2124 32.5275 31.3003C32.4146 31.3882 32.2616 31.4376 32.1019 31.4376C31.9423 31.4376 31.7892 31.3882 31.6764 31.3003C31.5635 31.2124 31.5001 31.0932 31.5001 30.9689C31.5001 30.8446 31.5635 30.7253 31.6764 30.6374C31.7892 30.5495 31.9423 30.5001 32.1019 30.5001ZM29.2148 33.8398V36.5354H34.7229V33.8398H29.2148ZM32.1019 34.2501C32.2616 34.2501 32.4146 34.2995 32.5275 34.3874C32.6404 34.4753 32.7038 34.5945 32.7038 34.7189C32.7038 34.8432 32.6404 34.9624 32.5275 35.0503C32.4146 35.1382 32.2616 35.1876 32.1019 35.1876C31.9423 35.1876 31.7892 35.1382 31.6764 35.0503C31.5635 34.9624 31.5001 34.8432 31.5001 34.7189C31.5001 34.5946 31.5635 34.4753 31.6764 34.3874C31.7892 34.2995 31.9423 34.2501 32.1019 34.2501Z" fill="#536DE6"/>
</svg>
