<svg width="40" height="41" viewBox="0 0 40 41" fill="none" xmlns="http://www.w3.org/2000/svg">
<path fill-rule="evenodd" clip-rule="evenodd" d="M0 4.14942C0 1.94028 1.79086 0.149414 4 0.149414H36C38.2091 0.149414 40 1.94028 40 4.14941V36.3979C40 38.607 38.2091 40.3979 36 40.3979H4C1.79086 40.3979 0 38.607 0 36.3979V4.14942Z" fill="white"/>
<path fill-rule="evenodd" clip-rule="evenodd" d="M14.1933 13.9224C15.6309 14.372 17.6838 14.6667 19.9989 14.6667C22.314 14.6667 24.3658 14.372 25.8034 13.9224C27.5833 13.3667 27.7383 12.7654 25.8034 12.1609C24.3669 11.7113 22.3151 11.4167 19.9989 11.4167C17.6838 11.4167 15.6309 11.7113 14.1933 12.1609C12.2672 12.7622 12.4405 13.3743 14.1933 13.9224ZM19.9989 9.25C17.5268 9.25 15.2463 9.562 13.5477 10.0928C11.8631 10.6193 9.94125 11.668 10.2619 13.748L11.9248 24.5618C12.291 26.9441 13.9875 29.0685 16.5258 29.5094C17.5679 29.6903 18.7758 29.8333 19.9989 29.8333C21.1637 29.8236 22.3256 29.7153 23.4721 29.5094C26.0103 29.0696 27.7058 26.9441 28.073 24.5618L29.7359 13.748C30.0566 11.668 28.1348 10.6193 26.4502 10.0928C24.7515 9.562 22.47 9.25 19.9989 9.25Z" fill="#144059"/>
</svg>
