<svg width="58" height="58" viewBox="0 0 58 58" fill="none" xmlns="http://www.w3.org/2000/svg">
<rect x="0.587891" y="0.586914" width="57.1745" height="57.1745" rx="2" fill="#3EC060" fill-opacity="0.2"/>
<path fill-rule="evenodd" clip-rule="evenodd" d="M22.9668 23.6724C24.4044 24.122 26.4573 24.4167 28.7724 24.4167C31.0874 24.4167 33.1393 24.122 34.5769 23.6724C36.3568 23.1167 36.5117 22.5154 34.5769 21.9109C33.1404 21.4613 31.0885 21.1667 28.7724 21.1667C26.4573 21.1667 24.4044 21.4613 22.9668 21.9109C21.0406 22.5122 21.2139 23.1243 22.9668 23.6724ZM28.7724 19C26.3002 19 24.0198 19.312 22.3211 19.8428C20.6365 20.3693 18.7147 21.418 19.0354 23.498L20.6983 34.3118C21.0644 36.6941 22.7609 38.8185 25.2992 39.2594C26.3414 39.4403 27.5493 39.5833 28.7724 39.5833C29.9371 39.5736 31.099 39.4653 32.2455 39.2594C34.7838 38.8196 36.4792 36.6941 36.8464 34.3118L38.5094 23.498C38.83 21.418 36.9082 20.3693 35.2236 19.8428C33.5249 19.312 31.2434 19 28.7724 19Z" fill="#34CD80"/>
</svg>
