<svg width="48" height="48" viewBox="0 0 48 48" fill="none" xmlns="http://www.w3.org/2000/svg">
<path opacity="0.25" fill-rule="evenodd" clip-rule="evenodd" d="M0 4C0 1.79086 1.79086 0 4 0H44C46.2091 0 48 1.79086 48 4V44C48 46.2091 46.2091 48 44 48H4C1.79086 48 0 46.2091 0 44V4Z" fill="#536DE6"/>
<g clip-path="url(#clip0_505_1615)">
<path d="M15.75 11.8125C15.2344 11.8125 14.8125 12.2344 14.8125 12.75V35.25C14.8125 35.7656 15.2344 36.1875 15.75 36.1875H20.4375V32.4375C20.4375 30.8848 21.6973 29.625 23.25 29.625C24.8027 29.625 26.0625 30.8848 26.0625 32.4375V36.1875H30.75C31.2656 36.1875 31.6875 35.7656 31.6875 35.25V12.75C31.6875 12.2344 31.2656 11.8125 30.75 11.8125H15.75ZM12 12.75C12 10.6816 13.6816 9 15.75 9H30.75C32.8184 9 34.5 10.6816 34.5 12.75V35.25C34.5 37.3184 32.8184 39 30.75 39H15.75C13.6816 39 12 37.3184 12 35.25V12.75ZM17.1562 15.0938C17.1562 14.5781 17.5781 14.1562 18.0938 14.1562H20.9062C21.4219 14.1562 21.8438 14.5781 21.8438 15.0938V17.9062C21.8438 18.4219 21.4219 18.8438 20.9062 18.8438H18.0938C17.5781 18.8438 17.1562 18.4219 17.1562 17.9062V15.0938ZM25.5938 14.1562H28.4062C28.9219 14.1562 29.3438 14.5781 29.3438 15.0938V17.9062C29.3438 18.4219 28.9219 18.8438 28.4062 18.8438H25.5938C25.0781 18.8438 24.6562 18.4219 24.6562 17.9062V15.0938C24.6562 14.5781 25.0781 14.1562 25.5938 14.1562ZM17.1562 22.5938C17.1562 22.0781 17.5781 21.6562 18.0938 21.6562H20.9062C21.4219 21.6562 21.8438 22.0781 21.8438 22.5938V25.4062C21.8438 25.9219 21.4219 26.3438 20.9062 26.3438H18.0938C17.5781 26.3438 17.1562 25.9219 17.1562 25.4062V22.5938ZM25.5938 21.6562H28.4062C28.9219 21.6562 29.3438 22.0781 29.3438 22.5938V25.4062C29.3438 25.9219 28.9219 26.3438 28.4062 26.3438H25.5938C25.0781 26.3438 24.6562 25.9219 24.6562 25.4062V22.5938C24.6562 22.0781 25.0781 21.6562 25.5938 21.6562Z" fill="#536DE6"/>
</g>
<defs>
<clipPath id="clip0_505_1615">
<rect width="22.5" height="30" fill="white" transform="translate(12 9)"/>
</clipPath>
</defs>
</svg>
