<svg width="22" height="23" viewBox="0 0 22 23" fill="none" xmlns="http://www.w3.org/2000/svg">
<path fill-rule="evenodd" clip-rule="evenodd" d="M11.0004 16.0625C11.2159 16.0625 11.4225 15.9769 11.5749 15.8245C11.7273 15.6721 11.8129 15.4654 11.8129 15.25V3.36254L13.6329 5.48695C13.7731 5.65072 13.9726 5.75209 14.1876 5.76875C14.4025 5.78541 14.6153 5.716 14.7791 5.57579C14.9428 5.43558 15.0442 5.23605 15.0609 5.0211C15.0775 4.80615 15.0081 4.59339 14.8679 4.42962L11.6179 0.637953C11.5416 0.548757 11.4469 0.477145 11.3403 0.428043C11.2337 0.378941 11.1178 0.353516 11.0004 0.353516C10.883 0.353516 10.7671 0.378941 10.6605 0.428043C10.5539 0.477145 10.4592 0.548757 10.3829 0.637953L7.13289 4.42962C7.06347 4.51071 7.01069 4.60468 6.97759 4.70617C6.94448 4.80766 6.93168 4.91467 6.93993 5.0211C6.94818 5.12753 6.97731 5.2313 7.02566 5.32647C7.07401 5.42164 7.14064 5.50636 7.22173 5.57579C7.30282 5.64521 7.39679 5.69799 7.49828 5.73109C7.59976 5.7642 7.70678 5.777 7.81321 5.76875C7.91964 5.7605 8.0234 5.73137 8.11858 5.68302C8.21375 5.63467 8.29847 5.56804 8.36789 5.48695L10.1879 3.36362V15.25C10.1879 15.6985 10.5519 16.0625 11.0004 16.0625Z" fill="#6C757D"/>
<path d="M15.3346 8.75C14.5741 8.75 14.1939 8.75 13.9198 8.93308C13.802 9.01194 13.7007 9.11316 13.6219 9.231C13.4388 9.50508 13.4388 9.88533 13.4388 10.6458V15.25C13.4388 15.8965 13.182 16.5165 12.7249 16.9736C12.2678 17.4307 11.6478 17.6875 11.0013 17.6875C10.3548 17.6875 9.73485 17.4307 9.27773 16.9736C8.82061 16.5165 8.5638 15.8965 8.5638 15.25V10.6458C8.5638 9.88533 8.5638 9.50508 8.38072 9.231C8.30187 9.11316 8.20065 9.01194 8.0828 8.93308C7.80872 8.75 7.42847 8.75 6.66797 8.75C3.6043 8.75 2.07139 8.75 1.12022 9.70225C0.167969 10.6534 0.167969 12.1842 0.167969 15.2489V16.3322C0.167969 19.3981 0.167969 20.9288 1.12022 21.8811C2.07139 22.8333 3.6043 22.8333 6.66797 22.8333H15.3346C18.3983 22.8333 19.9312 22.8333 20.8824 21.8811C21.8346 20.9288 21.8346 19.397 21.8346 16.3333V15.25C21.8346 12.1853 21.8346 10.6534 20.8824 9.70225C19.9312 8.75 18.3983 8.75 15.3346 8.75Z" fill="#6C757D"/>
</svg>
