<svg width="48" height="48" viewBox="0 0 48 48" fill="none" xmlns="http://www.w3.org/2000/svg">
<path opacity="0.25" fill-rule="evenodd" clip-rule="evenodd" d="M0 4C0 1.79086 1.79086 0 4 0H44C46.2091 0 48 1.79086 48 4V44C48 46.2091 46.2091 48 44 48H4C1.79086 48 0 46.2091 0 44V4Z" fill="#FF5B5B"/>
<path d="M32.75 19C33.413 19 34.0489 19.2634 34.5178 19.7322C34.9866 20.2011 35.25 20.837 35.25 21.5V29.95C36.0125 30.6375 36.5 31.6375 36.5 32.75C36.5 34.825 34.825 36.5 32.75 36.5C30.675 36.5 29 34.825 29 32.75C29 31.6375 29.4875 30.6375 30.25 29.95V21.5C30.25 20.125 31.375 19 32.75 19ZM32.75 20.25C32.0625 20.25 31.5 20.8125 31.5 21.5V22.75H34V21.5C34 20.8125 33.4375 20.25 32.75 20.25ZM15.25 34V24H11.5L24 12.75L29.5 17.7C28.9492 18.1678 28.5073 18.7502 28.205 19.4066C27.9027 20.0629 27.7474 20.7774 27.75 21.5V29C26.9625 30.0375 26.5 31.3375 26.5 32.75L26.625 34H15.25Z" fill="#FF5B5B"/>
</svg>
