<svg width="48" height="48" viewBox="0 0 48 48" fill="none" xmlns="http://www.w3.org/2000/svg">
<path opacity="0.25" fill-rule="evenodd" clip-rule="evenodd" d="M0 4C0 1.79086 1.79086 0 4 0H44C46.2091 0 48 1.79086 48 4V44C48 46.2091 46.2091 48 44 48H4C1.79086 48 0 46.2091 0 44V4Z" fill="#F9C851"/>
<path d="M27.125 31.5C27.6458 31.5 28.0887 31.3179 28.4537 30.9538C28.8187 30.5896 29.0008 30.1467 29 29.625C29 29.1042 28.8179 28.6617 28.4537 28.2975C28.0896 27.9333 27.6467 27.7508 27.125 27.75C26.6042 27.75 26.1617 27.9325 25.7975 28.2975C25.4333 28.6625 25.2508 29.105 25.25 29.625C25.25 30.1458 25.4325 30.5887 25.7975 30.9538C26.1625 31.3188 26.605 31.5008 27.125 31.5ZM20.8125 31.4375L28.9375 23.3125L27.1875 21.5625L19.0625 29.6875L20.8125 31.4375ZM20.875 25.25C21.3958 25.25 21.8387 25.0679 22.2037 24.7037C22.5687 24.3396 22.7508 23.8967 22.75 23.375C22.75 22.8542 22.5679 22.4117 22.2037 22.0475C21.8396 21.6833 21.3967 21.5008 20.875 21.5C20.3542 21.5 19.9117 21.6825 19.5475 22.0475C19.1833 22.4125 19.0008 22.855 19 23.375C19 23.8958 19.1825 24.3387 19.5475 24.7037C19.9125 25.0687 20.355 25.2508 20.875 25.25ZM24 36.5C21.1458 36.5 18.7658 35.5208 16.86 33.5625C14.9542 31.6042 14.0008 29.1667 14 26.25C14 24.1667 14.8283 21.9012 16.485 19.4537C18.1417 17.0062 20.6467 14.355 24 11.5C27.3542 14.3542 29.8596 17.0054 31.5163 19.4537C33.1729 21.9021 34.0008 24.1675 34 26.25C34 29.1667 33.0471 31.6042 31.1412 33.5625C29.2354 35.5208 26.855 36.5 24 36.5Z" fill="#F9C851"/>
</svg>
