<svg width="48" height="48" viewBox="0 0 48 48" fill="none" xmlns="http://www.w3.org/2000/svg">
<path opacity="0.25" fill-rule="evenodd" clip-rule="evenodd" d="M0 4C0 1.79086 1.79086 0 4 0H44C46.2091 0 48 1.79086 48 4V44C48 46.2091 46.2091 48 44 48H4C1.79086 48 0 46.2091 0 44V4Z" fill="#35B8E0"/>
<path d="M23.375 34C22.3333 34 21.4479 33.6354 20.7188 32.9063C19.9896 32.1771 19.625 31.2917 19.625 30.25H22.125C22.125 30.6042 22.245 30.9013 22.485 31.1413C22.725 31.3813 23.0217 31.5008 23.375 31.5C23.7292 31.5 24.0263 31.38 24.2663 31.14C24.5063 30.9 24.6258 30.6033 24.625 30.25C24.625 29.8958 24.505 29.5992 24.265 29.36C24.025 29.1208 23.7283 29.0008 23.375 29H11.5V26.5H23.375C24.4167 26.5 25.3021 26.8646 26.0312 27.5938C26.7604 28.3229 27.125 29.2083 27.125 30.25C27.125 31.2917 26.7604 32.1771 26.0312 32.9063C25.3021 33.6354 24.4167 34 23.375 34ZM11.5 21.5V19H28.375C28.9167 19 29.3646 18.8229 29.7188 18.4688C30.0729 18.1146 30.25 17.6667 30.25 17.125C30.25 16.5833 30.0729 16.1354 29.7188 15.7813C29.3646 15.4271 28.9167 15.25 28.375 15.25C27.8333 15.25 27.3854 15.4271 27.0312 15.7813C26.6771 16.1354 26.5 16.5833 26.5 17.125H24C24 15.8958 24.4221 14.8592 25.2662 14.015C26.1104 13.1708 27.1467 12.7492 28.375 12.75C29.6042 12.75 30.6408 13.1721 31.485 14.0163C32.3292 14.8604 32.7508 15.8967 32.75 17.125C32.75 18.3542 32.3283 19.3908 31.485 20.235C30.6417 21.0792 29.605 21.5008 28.375 21.5H11.5ZM32.125 31.5V29C32.6667 29 33.1146 28.8229 33.4688 28.4688C33.8229 28.1146 34 27.6667 34 27.125C34 26.5833 33.8229 26.1354 33.4688 25.7813C33.1146 25.4271 32.6667 25.25 32.125 25.25H11.5V22.75H32.125C33.3542 22.75 34.3908 23.1721 35.235 24.0163C36.0792 24.8604 36.5008 25.8967 36.5 27.125C36.5 28.3542 36.0783 29.3908 35.235 30.235C34.3917 31.0792 33.355 31.5008 32.125 31.5Z" fill="#35B8E0"/>
</svg>
