<svg width="48" height="48" viewBox="0 0 48 48" fill="none" xmlns="http://www.w3.org/2000/svg">
<path opacity="0.25" fill-rule="evenodd" clip-rule="evenodd" d="M0 4C0 1.79086 1.79086 0 4 0H44C46.2091 0 48 1.79086 48 4V44C48 46.2091 46.2091 48 44 48H4C1.79086 48 0 46.2091 0 44V4Z" fill="#144059"/>
<path d="M20.5625 25.25C20.5625 26.6313 19.4438 27.75 18.0625 27.75C16.6813 27.75 15.5625 26.6313 15.5625 25.25C15.5625 23.8688 16.6813 22.75 18.0625 22.75C19.4438 22.75 20.5625 23.8688 20.5625 25.25Z" fill="#144059"/>
<path fill-rule="evenodd" clip-rule="evenodd" d="M18.0625 26.5C18.394 26.5 18.712 26.3683 18.9464 26.1339C19.1808 25.8995 19.3125 25.5815 19.3125 25.25C19.3125 24.9185 19.1808 24.6005 18.9464 24.3661C18.712 24.1317 18.394 24 18.0625 24C17.731 24 17.413 24.1317 17.1786 24.3661C16.9442 24.6005 16.8125 24.9185 16.8125 25.25C16.8125 25.5815 16.9442 25.8995 17.1786 26.1339C17.413 26.3683 17.731 26.5 18.0625 26.5ZM18.0625 27.75C19.4438 27.75 20.5625 26.6313 20.5625 25.25C20.5625 23.8688 19.4438 22.75 18.0625 22.75C16.6813 22.75 15.5625 23.8688 15.5625 25.25C15.5625 26.6313 16.6813 27.75 18.0625 27.75Z" fill="#144059"/>
<path d="M12.75 31.8406C12.75 29.9519 16.2894 29 18.0625 29C19.8356 29 23.375 29.9519 23.375 31.8406V35.25H12.75V31.8406Z" fill="#144059"/>
<path fill-rule="evenodd" clip-rule="evenodd" d="M14.2087 31.4894C14.0112 31.6844 14 31.7963 14 31.8413V34H22.125V31.8406C22.125 31.7969 22.1138 31.6844 21.9163 31.4894C21.7075 31.2838 21.3631 31.0631 20.8912 30.8613C19.9412 30.4544 18.7812 30.25 18.0625 30.25C17.3438 30.25 16.1831 30.4544 15.2337 30.8613C14.7619 31.0631 14.4175 31.2838 14.2087 31.4894ZM18.0625 29C16.2894 29 12.75 29.9519 12.75 31.8406V35.25H23.375V31.8406C23.375 29.9519 19.8356 29 18.0625 29Z" fill="#144059"/>
<path d="M32.4375 25.25C32.4375 26.6313 31.3188 27.75 29.9375 27.75C28.5563 27.75 27.4375 26.6313 27.4375 25.25C27.4375 23.8688 28.5563 22.75 29.9375 22.75C31.3188 22.75 32.4375 23.8688 32.4375 25.25Z" fill="#144059"/>
<path fill-rule="evenodd" clip-rule="evenodd" d="M29.9375 26.5C30.269 26.5 30.587 26.3683 30.8214 26.1339C31.0558 25.8995 31.1875 25.5815 31.1875 25.25C31.1875 24.9185 31.0558 24.6005 30.8214 24.3661C30.587 24.1317 30.269 24 29.9375 24C29.606 24 29.288 24.1317 29.0536 24.3661C28.8192 24.6005 28.6875 24.9185 28.6875 25.25C28.6875 25.5815 28.8192 25.8995 29.0536 26.1339C29.288 26.3683 29.606 26.5 29.9375 26.5ZM29.9375 27.75C31.3188 27.75 32.4375 26.6313 32.4375 25.25C32.4375 23.8688 31.3188 22.75 29.9375 22.75C28.5563 22.75 27.4375 23.8688 27.4375 25.25C27.4375 26.6313 28.5563 27.75 29.9375 27.75Z" fill="#144059"/>
<path d="M26.5 24C26.5 25.3813 25.3813 26.5 24 26.5C22.6188 26.5 21.5 25.3813 21.5 24C21.5 22.6188 22.6188 21.5 24 21.5C25.3813 21.5 26.5 22.6188 26.5 24Z" fill="#144059"/>
<path fill-rule="evenodd" clip-rule="evenodd" d="M24 25.25C24.3315 25.25 24.6495 25.1183 24.8839 24.8839C25.1183 24.6495 25.25 24.3315 25.25 24C25.25 23.6685 25.1183 23.3505 24.8839 23.1161C24.6495 22.8817 24.3315 22.75 24 22.75C23.6685 22.75 23.3505 22.8817 23.1161 23.1161C22.8817 23.3505 22.75 23.6685 22.75 24C22.75 24.3315 22.8817 24.6495 23.1161 24.8839C23.3505 25.1183 23.6685 25.25 24 25.25ZM24 26.5C25.3813 26.5 26.5 25.3813 26.5 24C26.5 22.6188 25.3813 21.5 24 21.5C22.6188 21.5 21.5 22.6188 21.5 24C21.5 25.3813 22.6188 26.5 24 26.5Z" fill="#144059"/>
<path d="M23.3742 17.0206C23.3742 16.2195 23.0559 15.4512 22.4894 14.8847C21.923 14.3182 21.1547 14 20.3535 14H18.3729C17.5534 13.9987 16.7661 14.3195 16.181 14.8932C15.5958 15.467 15.2595 16.2478 15.2447 17.0672C15.2298 17.8866 15.5376 18.679 16.1016 19.2736C16.6656 19.8682 17.4407 20.2173 18.2598 20.2456L18.3742 20.25V21.5C18.3742 21.5 23.3742 20.7706 23.3742 17.0206ZM25.2492 16.0225C25.2492 15.1546 25.5939 14.3222 26.2077 13.7085C26.8214 13.0948 27.6537 12.75 28.5217 12.75H32.1242C32.953 12.75 33.7478 13.0792 34.3339 13.6653C34.9199 14.2513 35.2492 15.0462 35.2492 15.875C35.2492 16.7038 34.9199 17.4987 34.3339 18.0847C33.7478 18.6708 32.953 19 32.1242 19H30.8742V20.875C30.8742 20.875 25.2492 20.085 25.2492 16.0225ZM24.6242 31.8406C24.6242 29.9519 28.1635 29 29.9367 29C31.7098 29 35.2492 29.9519 35.2492 31.8406V35.25H24.6242V31.8406Z" fill="#144059"/>
<path fill-rule="evenodd" clip-rule="evenodd" d="M26.083 31.4894C25.8855 31.6844 25.8742 31.7963 25.8742 31.8413V34H33.9992V31.8406C33.9992 31.7969 33.988 31.6844 33.7905 31.4894C33.5817 31.2838 33.2373 31.0631 32.7655 30.8613C31.8155 30.4544 30.6555 30.25 29.9367 30.25C29.218 30.25 28.0573 30.4544 27.108 30.8613C26.6361 31.0631 26.2917 31.2838 26.083 31.4894ZM29.9367 29C28.1636 29 24.6242 29.9519 24.6242 31.8406V35.25H35.2492V31.8406C35.2492 29.9519 31.7098 29 29.9367 29ZM23.9992 30.5906C23.9992 29.5425 22.8448 28.7825 21.4961 28.3138C22.2788 27.9439 23.1335 27.7514 23.9992 27.75C24.8649 27.7514 25.7196 27.9439 26.5023 28.3138C25.1536 28.7825 23.9992 29.5425 23.9992 30.5906Z" fill="#144059"/>
<path fill-rule="evenodd" clip-rule="evenodd" d="M23.9992 30.5907C23.9992 30.0326 24.3267 29.5557 24.8367 29.1613L24.9248 29.0957C25.3605 28.7794 25.9123 28.5188 26.5023 28.3144C25.9169 28.0384 25.2903 27.86 24.6473 27.7863C24.2166 27.7379 23.7818 27.7379 23.3511 27.7863C22.7081 27.8598 22.0815 28.038 21.4961 28.3138C22.0855 28.5188 22.638 28.7794 23.073 29.0951C23.103 29.1169 23.1323 29.1388 23.1611 29.1613C23.6717 29.5551 23.9992 30.0326 23.9992 30.5907Z" fill="#144059"/>
</svg>
