<svg width="48" height="48" viewBox="0 0 48 48" fill="none" xmlns="http://www.w3.org/2000/svg">
<path opacity="0.25" fill-rule="evenodd" clip-rule="evenodd" d="M0 4C0 1.79086 1.79086 0 4 0H44C46.2091 0 48 1.79086 48 4V44C48 46.2091 46.2091 48 44 48H4C1.79086 48 0 46.2091 0 44V4Z" fill="#536DE6"/>
<path d="M23.8711 10.7837C23.3145 10.854 22.8105 11.5044 22.8105 12.354C22.8105 12.8228 22.9688 13.2329 23.2031 13.52L23.4902 13.8599L23.0508 13.9419C22.7461 14.0005 22.5234 14.1646 22.3301 14.4282C22.1309 14.6978 21.9844 15.0587 21.8848 15.4864C21.6973 16.254 21.6562 17.1915 21.6504 18.0235H22.6758L22.7695 19.3067C23.168 19.2892 23.5781 19.2774 23.9941 19.2774C24.4336 19.2774 24.8613 19.2892 25.2773 19.3126L25.3652 18.0235H26.3379C26.3379 17.1856 26.3262 16.2306 26.1562 15.4513C26.0625 15.0294 25.9219 14.6626 25.7285 14.3989C25.5352 14.1353 25.2949 13.9771 24.9492 13.9243L24.5039 13.854L24.7852 13.5024C25.0137 13.2212 25.166 12.811 25.166 12.354C25.166 11.4517 24.6035 10.7837 23.9883 10.7837H23.8711ZM12.627 19.2188C12.0703 19.2892 11.5664 19.9395 11.5664 20.7892C11.5664 21.2579 11.7246 21.6681 11.959 21.9552L12.2461 22.295L11.8066 22.3771C11.502 22.4356 11.2793 22.5997 11.0859 22.8634C10.8867 23.1329 10.7402 23.4962 10.6406 23.9239C10.4531 24.6915 10.4121 25.629 10.4062 26.461H11.4316L11.707 30.2286C12.4219 30.3927 13.1836 30.381 13.8715 30.2286L14.1234 26.461H15.0938C15.0938 25.6231 15.082 24.6681 14.9121 23.8888C14.8201 23.4669 14.6795 23.0978 14.4861 22.8341C14.2934 22.5704 14.0531 22.4122 13.7074 22.3595L13.2598 22.2892L13.541 21.9376C13.7719 21.6563 13.9242 21.2462 13.9242 20.7892C13.9242 19.8868 13.3594 19.2188 12.7441 19.2188H12.627ZM35.127 19.2188C34.5703 19.2892 34.0664 19.9395 34.0664 20.7892C34.0664 21.2579 34.2246 21.6681 34.459 21.9552L34.7461 22.295L34.3066 22.3771C34.002 22.4356 33.7793 22.5997 33.5859 22.8634C33.3867 23.1329 33.2402 23.4962 33.1406 23.9239C32.9531 24.6915 32.9121 25.629 32.9062 26.461H33.9316L34.207 30.2286C34.9219 30.3927 35.6836 30.381 36.3691 30.2286L36.6211 26.461H37.5938C37.5938 25.6231 37.582 24.6681 37.4121 23.8888C37.3184 23.4669 37.1777 23.0978 36.9844 22.8341C36.791 22.5704 36.5508 22.4122 36.2051 22.3595L35.7598 22.2892L36.041 21.9376C36.2695 21.6563 36.4219 21.2462 36.4219 20.7892C36.4219 19.8868 35.8594 19.2188 35.2441 19.2188H35.127ZM23.9941 20.3321C21.8438 20.3321 19.8984 20.6427 18.5332 21.1231C17.8535 21.3634 17.3203 21.6505 16.9922 21.9259C16.6582 22.2013 16.5527 22.4298 16.5527 22.6173C16.5527 22.8048 16.6582 23.0333 16.9922 23.3087C17.3203 23.5841 17.8535 23.8653 18.5332 24.1114C19.8984 24.5919 21.8438 24.9024 23.9941 24.9024C26.1445 24.9024 28.0898 24.5919 29.4551 24.1114C30.1348 23.8653 30.668 23.5841 30.9961 23.3087C31.3301 23.0333 31.4355 22.8048 31.4355 22.6173C31.4355 22.4298 31.3301 22.2013 30.9961 21.9259C30.668 21.6505 30.1348 21.3634 29.4551 21.1231C28.0898 20.6427 26.1445 20.3321 23.9941 20.3321ZM17.8418 24.9728V27.6563H18.8965V25.3243C18.6504 25.254 18.4102 25.1837 18.1816 25.1017C18.0645 25.0606 17.9531 25.0196 17.8418 24.9728ZM30.1465 24.9728C30.0352 25.0196 29.9238 25.0606 29.8066 25.1017C29.5781 25.1837 29.3379 25.254 29.0918 25.3243V27.6563H30.1465V24.9728ZM23.8711 26.086C23.3145 26.1563 22.8105 26.8067 22.8105 27.6563C22.8105 28.1251 22.9688 28.5353 23.2031 28.8224L23.4902 29.1622L23.0508 29.2442C22.7461 29.3028 22.5234 29.4669 22.3301 29.7306C22.1309 30.0001 21.9844 30.3634 21.8848 30.7911C21.6973 31.5587 21.6562 32.4962 21.6504 33.3282H22.6758L22.9512 37.0958C23.666 37.2599 24.4277 37.2481 25.1133 37.0958L25.3652 33.3282H26.3379C26.3379 32.4903 26.3262 31.5353 26.1562 30.756C26.0625 30.3341 25.9219 29.9649 25.7285 29.7013C25.5352 29.4376 25.2949 29.2794 24.9492 29.2267L24.5039 29.1563L24.7852 28.8048C25.0137 28.5235 25.166 28.1134 25.166 27.6563C25.166 26.754 24.6035 26.086 23.9883 26.086H23.8711Z" fill="#536DE6"/>
</svg>
