<svg width="48" height="48" viewBox="0 0 48 48" fill="none" xmlns="http://www.w3.org/2000/svg">
<path opacity="0.25" fill-rule="evenodd" clip-rule="evenodd" d="M0 4C0 1.79086 1.79086 0 4 0H44C46.2091 0 48 1.79086 48 4V44C48 46.2091 46.2091 48 44 48H4C1.79086 48 0 46.2091 0 44V4Z" fill="#10C469"/>
<path d="M20.4003 31.8481C20.3562 31.8481 20.3124 31.8397 20.2713 31.8234C19.2932 31.822 18.3151 31.808 17.3373 31.7814C16.6301 31.7641 15.9738 31.7484 15.2141 31.7484C14.0213 31.7472 12.8777 31.2729 12.0342 30.4295C11.1907 29.5862 10.7162 28.4426 10.7148 27.2499C10.7148 25.7469 11.4423 24.3759 12.6731 23.5366C12.5723 23.0458 12.5216 22.546 12.5216 22.0449C12.5216 17.9686 15.8381 14.6514 19.9158 14.6514C21.2512 14.6527 22.5614 15.0148 23.7078 15.6995C24.8543 16.3841 25.7944 17.3659 26.4288 18.5409C26.8463 18.1129 27.3455 17.7731 27.8968 17.5419C28.4481 17.3106 29.0402 17.1925 29.6381 17.1946C30.3216 17.1952 30.996 17.3513 31.6102 17.6512C32.2244 17.951 32.7623 18.3868 33.1831 18.9253C33.6039 19.4639 33.8967 20.0912 34.0391 20.7597C34.1816 21.4281 34.17 22.1203 34.0053 22.7836C34.949 23.0499 35.78 23.6171 36.3719 24.3989C36.9637 25.1806 37.2841 26.1343 37.2843 27.1149C37.2843 29.5959 35.2661 31.6149 32.7851 31.6149C31.6286 31.6149 29.0028 31.6749 26.4641 31.7334C23.9013 31.7934 21.4811 31.8481 20.4003 31.8481ZM19.9158 15.3496C16.2236 15.3496 13.2198 18.3526 13.2198 22.0449C13.2198 22.5751 13.2828 23.1039 13.4066 23.6161C13.4239 23.6882 13.4179 23.7639 13.3893 23.8322C13.3607 23.9006 13.3111 23.9581 13.2476 23.9964C12.6857 24.3329 12.2211 24.8098 11.8993 25.3802C11.5775 25.9506 11.4097 26.5949 11.4123 27.2499C11.4135 28.2575 11.8144 29.2236 12.527 29.936C13.2396 30.6484 14.2057 31.0491 15.2133 31.0501C15.9791 31.0501 16.6406 31.0659 17.3538 31.0831C18.1826 31.1026 19.0818 31.1244 20.3013 31.1244C20.3455 31.1245 20.3893 31.1329 20.4303 31.1491C21.5201 31.1476 24.0243 31.0906 26.4468 31.0351C28.9901 30.9766 31.6196 30.9166 32.7843 30.9166C33.7922 30.9154 34.7584 30.5145 35.471 29.8018C36.1836 29.089 36.5844 28.1227 36.5853 27.1149C36.5856 26.2309 36.2776 25.3745 35.7144 24.6932C35.1512 24.0119 34.3681 23.5482 33.4998 23.3821C33.4508 23.3728 33.4043 23.353 33.3636 23.3242C33.3229 23.2953 33.2889 23.258 33.2638 23.2148C33.2388 23.1716 33.2233 23.1236 33.2185 23.0739C33.2137 23.0242 33.2196 22.9741 33.2358 22.9269C33.4311 22.3544 33.4871 21.7436 33.3992 21.1452C33.3113 20.5468 33.0819 19.9779 32.7302 19.4859C32.3785 18.9938 31.9145 18.5927 31.3767 18.3157C30.839 18.0388 30.243 17.8941 29.6381 17.8936C29.0552 17.8919 28.4798 18.0252 27.957 18.283C27.4342 18.5407 26.9782 18.916 26.6246 19.3794C26.588 19.4276 26.5395 19.4654 26.4838 19.4891C26.4281 19.5128 26.3671 19.5215 26.307 19.5144C26.2469 19.5072 26.1897 19.4845 26.1411 19.4485C26.0925 19.4124 26.0541 19.3643 26.0298 19.3089C25.5 18.1304 24.6412 17.13 23.5567 16.4277C22.4721 15.7254 21.2079 15.351 19.9158 15.3496Z" fill="#10C469" stroke="#10C469"/>
<path d="M21.3934 25.1358C21.4102 25.1357 21.4268 25.1394 21.4419 25.1465C21.4571 25.1537 21.4705 25.1641 21.4811 25.1771L21.7234 25.4381C21.539 25.6513 21.3101 25.8215 21.0529 25.9368C20.7904 26.0561 20.4731 26.1153 20.1004 26.1153C19.7779 26.1153 19.4854 26.0591 19.2214 25.9473C18.965 25.841 18.7347 25.6803 18.5464 25.4763C18.3543 25.2656 18.2068 25.0181 18.1129 24.7488C18.0078 24.4494 17.9557 24.1339 17.9591 23.8166C17.9591 23.4776 18.0131 23.1663 18.1196 22.8836C18.2152 22.6137 18.3668 22.3672 18.5644 22.1601C18.7621 21.953 19.0013 21.7901 19.2664 21.6821C19.5507 21.5678 19.8548 21.511 20.1611 21.5148C20.4814 21.5148 20.7641 21.5666 21.0094 21.6686C21.2539 21.7706 21.4691 21.9101 21.6559 22.0856L21.4549 22.3653C21.4427 22.386 21.426 22.4037 21.4061 22.4171C21.382 22.4316 21.3541 22.4387 21.3259 22.4373C21.2884 22.4373 21.2419 22.4171 21.1879 22.3758C21.0251 22.2523 20.841 22.1595 20.6449 22.1021C20.4866 22.0574 20.3226 22.0367 20.1581 22.0406C19.9256 22.0406 19.7134 22.0818 19.5199 22.1621C19.3302 22.2405 19.1604 22.3602 19.0226 22.5123C18.8839 22.6646 18.7751 22.8513 18.6979 23.0711C18.6176 23.3108 18.5785 23.5623 18.5824 23.8151C18.5824 24.0956 18.6229 24.3453 18.7031 24.5651C18.7834 24.7848 18.8936 24.9708 19.0331 25.1223C19.1726 25.2738 19.3361 25.3901 19.5259 25.4696C19.7156 25.5491 19.9204 25.5888 20.1401 25.5888C20.2744 25.5888 20.3951 25.5813 20.5024 25.5648C20.6043 25.5512 20.7043 25.5265 20.8009 25.4913C20.8902 25.459 20.9755 25.4165 21.0551 25.3646C21.1339 25.3128 21.2119 25.2513 21.2899 25.1808C21.3176 25.1536 21.3545 25.1375 21.3934 25.1358ZM27.5001 23.8173C27.5001 24.1541 27.4469 24.4631 27.3396 24.7458C27.2394 25.0161 27.0856 25.2633 26.8874 25.4726C26.6897 25.6781 26.4507 25.8394 26.1861 25.9458C25.898 26.0603 25.5902 26.1171 25.2801 26.1131C24.9494 26.1131 24.6479 26.0576 24.3756 25.9458C24.1115 25.8393 23.873 25.678 23.6759 25.4726C23.4773 25.2636 23.3234 25.0163 23.2236 24.7458C23.1139 24.4487 23.0595 24.134 23.0631 23.8173C23.0631 23.4798 23.1164 23.1708 23.2236 22.8888C23.3309 22.6076 23.4816 22.3638 23.6759 22.1606C23.8731 21.9546 24.1115 21.7925 24.3756 21.6851C24.6629 21.569 24.9704 21.5114 25.2801 21.5156C25.6116 21.5156 25.9131 21.5718 26.1861 21.6851C26.4584 21.7976 26.6931 21.9573 26.8874 22.1606C27.0824 22.3646 27.2331 22.6076 27.3396 22.8888C27.4469 23.1708 27.5001 23.4798 27.5001 23.8173ZM26.8746 23.8173C26.8746 23.5406 26.8371 23.2923 26.7614 23.0733C26.6943 22.8674 26.5853 22.6777 26.4411 22.5161C26.3018 22.3634 26.1301 22.2437 25.9386 22.1658C25.7289 22.0816 25.5046 22.0398 25.2786 22.0428C25.0379 22.0428 24.8196 22.0841 24.6224 22.1658C24.4307 22.2437 24.2587 22.3633 24.1191 22.5161C23.9796 22.6676 23.8724 22.8536 23.7966 23.0733C23.7216 23.2931 23.6834 23.5406 23.6834 23.8173C23.6834 24.0933 23.7216 24.3408 23.7966 24.5598C23.8724 24.7781 23.9789 24.9633 24.1191 25.1156C24.2579 25.2678 24.4259 25.3833 24.6224 25.4636C24.8196 25.5446 25.0379 25.5851 25.2786 25.5851C25.5209 25.5851 25.7414 25.5446 25.9386 25.4636C26.1351 25.3833 26.3024 25.2671 26.4411 25.1156C26.5799 24.9633 26.6856 24.7781 26.7614 24.5598C26.8379 24.3408 26.8746 24.0933 26.8746 23.8173Z" fill="#10C469" stroke="#10C469"/>
<path d="M28.432 28C28.344 28 28.28 27.98 28.24 27.94C28.202 27.898 28.183 27.837 28.183 27.757C28.183 27.701 28.195 27.651 28.219 27.607C28.245 27.563 28.278 27.52 28.318 27.478L28.843 26.929C28.921 26.845 28.976 26.773 29.008 26.713C29.042 26.653 29.059 26.593 29.059 26.533C29.059 26.457 29.034 26.4 28.984 26.362C28.934 26.324 28.862 26.305 28.768 26.305C28.72 26.305 28.669 26.312 28.615 26.326C28.561 26.338 28.503 26.36 28.441 26.392C28.387 26.416 28.338 26.423 28.294 26.413C28.252 26.403 28.216 26.381 28.186 26.347C28.158 26.313 28.14 26.274 28.132 26.23C28.126 26.186 28.133 26.143 28.153 26.101C28.173 26.057 28.209 26.021 28.261 25.993C28.353 25.943 28.448 25.907 28.546 25.885C28.646 25.863 28.746 25.852 28.846 25.852C29.01 25.852 29.147 25.876 29.257 25.924C29.369 25.972 29.454 26.042 29.512 26.134C29.57 26.224 29.599 26.336 29.599 26.47C29.599 26.554 29.586 26.636 29.56 26.716C29.536 26.796 29.496 26.876 29.44 26.956C29.386 27.036 29.313 27.121 29.221 27.211L28.735 27.691V27.553H29.476C29.55 27.553 29.606 27.572 29.644 27.61C29.684 27.648 29.704 27.703 29.704 27.775C29.704 27.847 29.684 27.903 29.644 27.943C29.606 27.981 29.55 28 29.476 28H28.432Z" fill="#10C469"/>
</svg>
