<svg width="18" height="22" viewBox="0 0 18 22" fill="none" xmlns="http://www.w3.org/2000/svg">
<path fill-rule="evenodd" clip-rule="evenodd" d="M2.4987 0.166504C1.92406 0.166504 1.37296 0.394777 0.966633 0.801106C0.560304 1.20743 0.332031 1.75853 0.332031 2.33317V19.6665C0.332031 20.2411 0.560304 20.7922 0.966633 21.1986C1.37296 21.6049 1.92406 21.8332 2.4987 21.8332H15.4987C16.0733 21.8332 16.6244 21.6049 17.0308 21.1986C17.4371 20.7922 17.6654 20.2411 17.6654 19.6665V4.94834C17.6652 4.37375 17.4369 3.82274 17.0305 3.4165L14.4154 0.801337C14.0091 0.39498 13.4581 0.166627 12.8835 0.166504H2.4987ZM13.5899 9.69225C13.6933 9.59232 13.7759 9.47278 13.8326 9.34061C13.8894 9.20844 13.9193 9.06628 13.9206 8.92244C13.9218 8.77859 13.8944 8.63594 13.8399 8.5028C13.7855 8.36967 13.705 8.24871 13.6033 8.14699C13.5016 8.04528 13.3806 7.96483 13.2475 7.91036C13.1143 7.85589 12.9717 7.82848 12.8278 7.82973C12.684 7.83098 12.5418 7.86087 12.4097 7.91764C12.2775 7.97442 12.158 8.05695 12.058 8.16042L7.46253 12.7559L5.92961 11.2241C5.7253 11.0267 5.45164 10.9176 5.1676 10.92C4.88355 10.9225 4.61184 11.0364 4.41098 11.2373C4.21012 11.4381 4.09619 11.7099 4.09372 11.9939C4.09125 12.2779 4.20044 12.5516 4.39778 12.7559L6.61862 14.9778C6.72928 15.0886 6.86067 15.1764 7.00529 15.2363C7.1499 15.2962 7.30491 15.3271 7.46145 15.3271C7.61799 15.3271 7.77299 15.2962 7.91761 15.2363C8.06222 15.1764 8.19362 15.0886 8.30428 14.9778L13.5899 9.69225Z" fill="white"/>
</svg>
