<svg width="48" height="48" viewBox="0 0 48 48" fill="none" xmlns="http://www.w3.org/2000/svg">
<path opacity="0.25" fill-rule="evenodd" clip-rule="evenodd" d="M0 4C0 1.79086 1.79086 0 4 0H44C46.2091 0 48 1.79086 48 4V44C48 46.2091 46.2091 48 44 48H4C1.79086 48 0 46.2091 0 44V4Z" fill="#00C5DC"/>
<path d="M14.1562 14.625C13.286 14.625 12.4514 14.9707 11.8361 15.5861C11.2207 16.2014 10.875 17.036 10.875 17.9062V20.25H34.25V32.4375C34.25 32.6861 34.5246 33.1004 34.5246 33.1004C34.5246 33.1004 34.9389 33.375 35.1875 33.375C36 33.375 36.5 33.5 36.8504 33.1004C37.0262 32.9246 37.125 32.6861 37.125 32.4375V17.9062C37.125 17.036 36.7793 16.2014 36.1639 15.5861C35.5486 14.9707 34.714 14.625 33.8438 14.625H14.1562ZM24 22.125H10.875V30.0938C10.875 31.905 12.345 33.375 14.1562 33.375H20.7188C21.589 33.375 22.4236 33.0293 23.0389 32.4139C23.6543 31.7986 24 30.964 24 30.0938V22.125ZM14.625 25.875C14.625 25.6264 14.7238 25.3879 14.8996 25.2121C15.0754 25.0363 15.3139 24.9375 15.5625 24.9375H19.3125C19.5611 24.9375 19.7996 25.0363 19.9754 25.2121C20.1512 25.3879 20.25 25.6264 20.25 25.875C20.25 26.1236 20.1512 26.3621 19.9754 26.5379C19.7996 26.7137 19.5611 26.8125 19.3125 26.8125H15.5625C15.3139 26.8125 15.0754 26.7137 14.8996 26.5379C14.7238 26.3621 14.625 26.1236 14.625 25.875Z" fill="#00C5DC"/>
</svg>
