<svg width="37" height="37" viewBox="0 0 37 37" fill="none" xmlns="http://www.w3.org/2000/svg">
<path fill-rule="evenodd" clip-rule="evenodd" d="M23.5789 5.73047L28.3581 13.9629H33.4527V16.9231H31.7158L30.5891 30.367C30.5249 31.1338 29.8805 31.7238 29.1067 31.7243H8.03155C7.25776 31.7238 6.61337 31.1338 6.54915 30.367L5.42097 16.9231H3.68555V13.9629H8.77871L13.5593 5.73047L16.1372 7.21058L12.2168 13.9629H24.92L21.0011 7.21058L23.5789 5.73047L23.5789 5.73047ZM28.7288 16.9229H8.4082L9.40094 28.7638H27.736L28.7288 16.9229ZM20.0568 19.8835V25.804H17.0801V19.8835H20.0568ZM14.1037 19.8835V25.804H11.127V19.8835H14.1037ZM26.0119 19.8835V25.804H23.0352V19.8835H26.0119Z" fill="#8A999C"/>
</svg>
