<svg width="40" height="40" viewBox="0 0 40 40" fill="none" xmlns="http://www.w3.org/2000/svg">
<path opacity="0.4" fill-rule="evenodd" clip-rule="evenodd" d="M0 3C0 1.34315 1.34315 0 3 0H37C38.6569 0 40 1.34315 40 3V37C40 38.6569 38.6569 40 37 40H3C1.34315 40 0 38.6569 0 37V3Z" fill="#536DE6"/>
<path d="M16.5001 12.125V15.5H21.0001V14.375H23.113C23.2606 14.375 23.4048 14.4348 23.5102 14.5402L24.702 15.732C25.1415 16.1715 25.8552 16.1715 26.2946 15.732C26.7341 15.2926 26.7341 14.5789 26.2946 14.1395L25.1028 12.9477C24.5755 12.4203 23.8583 12.125 23.113 12.125H21.0001C21.0001 11.5027 20.4973 11 19.8751 11H17.6251C17.0028 11 16.5001 11.5027 16.5001 12.125ZM16.1274 16.625C14.9567 16.625 13.9829 17.5215 13.8845 18.6887L13.2305 26.5637C13.1216 27.875 14.1552 29 15.4735 29H22.0266C23.3415 29 24.3786 27.875 24.2696 26.5637L23.6122 18.6887C23.5138 17.5215 22.5399 16.625 21.3692 16.625H16.1274ZM21.0001 23.6562C21.0001 24.8973 19.9911 25.625 18.7501 25.625C17.5091 25.625 16.5001 24.8973 16.5001 23.6562C16.5001 22.5137 17.8009 20.8121 18.2895 20.2145C18.402 20.0773 18.5743 20 18.7501 20C18.9259 20 19.0981 20.0773 19.2106 20.2145C19.6993 20.8121 21.0001 22.5137 21.0001 23.6562Z" fill="#536DE6"/>
</svg>
