<svg width="58" height="58" viewBox="0 0 58 58" fill="none" xmlns="http://www.w3.org/2000/svg">
<rect x="0.587891" y="0.586914" width="57.1745" height="57.1745" rx="2" fill="#3688FC" fill-opacity="0.2"/>
<path d="M24.2492 17.5625V22.25H30.4992V20.6875H33.4338C33.6389 20.6875 33.8391 20.7705 33.9856 20.917L35.6408 22.5723C36.2512 23.1826 37.2424 23.1826 37.8528 22.5723C38.4631 21.9619 38.4631 20.9707 37.8528 20.3604L36.1975 18.7051C35.4651 17.9727 34.469 17.5625 33.4338 17.5625H30.4992C30.4992 16.6982 29.801 16 28.9367 16H25.8117C24.9475 16 24.2492 16.6982 24.2492 17.5625ZM23.7317 23.8125C22.1057 23.8125 20.7531 25.0576 20.6164 26.6787L19.7082 37.6162C19.5569 39.4375 20.9924 41 22.8235 41H31.925C33.7512 41 35.1916 39.4375 35.0403 37.6162L34.1272 26.6787C33.9905 25.0576 32.6379 23.8125 31.0119 23.8125H23.7317ZM30.4992 33.5781C30.4992 35.3018 29.0979 36.3125 27.3742 36.3125C25.6506 36.3125 24.2492 35.3018 24.2492 33.5781C24.2492 31.9912 26.0559 29.6279 26.7346 28.7979C26.8908 28.6074 27.1301 28.5 27.3742 28.5C27.6184 28.5 27.8576 28.6074 28.0139 28.7979C28.6926 29.6279 30.4992 31.9912 30.4992 33.5781Z" fill="#536DE6"/>
</svg>
