<svg width="58" height="58" viewBox="0 0 58 58" fill="none" xmlns="http://www.w3.org/2000/svg">
<rect x="0.587891" y="0.586914" width="57.1745" height="57.1745" rx="2" fill="#144059" fill-opacity="0.2"/>
<g clip-path="url(#clip0_3316_6)">
<path d="M20.5166 16H26.1562C28.1094 16 28.6953 17.1719 29.2812 18.3438C29.8672 19.5156 30.4531 20.6875 32.4062 20.6875H36.5664C37.2891 20.6875 37.875 21.2734 37.875 21.9961C37.875 22.1621 37.8408 22.3281 37.7822 22.4844L36 26.9375L34.75 30.0625H22.25L21.4688 26.9375L19.1689 17.7285C19.1396 17.6162 19.125 17.5039 19.125 17.3916C19.125 16.625 19.75 16 20.5166 16ZM19.8574 26.9375L20.6387 30.0625H19.9062C19.4766 30.0625 19.125 30.4141 19.125 30.8438C19.125 31.2734 19.4766 31.625 19.9062 31.625H37.0938C37.5234 31.625 37.875 31.2734 37.875 30.8438C37.875 30.4141 37.5234 30.0625 37.0938 30.0625H36.4346L37.6846 26.9375H38.6562C39.9502 26.9375 41 27.9873 41 29.2812V34.75H16V29.2812C16 27.9873 17.0498 26.9375 18.3438 26.9375H19.8574ZM16 36.3125H41V38.6562C41 39.9502 39.9502 41 38.6562 41H18.3438C17.0498 41 16 39.9502 16 38.6562V36.3125Z" fill="#144059"/>
</g>
<defs>
<clipPath id="clip0_3316_6">
<rect width="25" height="25" fill="white" transform="translate(16 16)"/>
</clipPath>
</defs>
</svg>
