<svg width="58" height="58" viewBox="0 0 58 58" fill="none" xmlns="http://www.w3.org/2000/svg">
<rect y="0.75" width="57.1745" height="57.1745" rx="2" fill="#144059" fill-opacity="0.2"/>
<g clip-path="url(#clip0_3432_188)">
<path d="M19.9287 16.1641H25.5684C27.5215 16.1641 28.1074 17.3359 28.6934 18.5078C29.2793 19.6797 29.8652 20.8516 31.8184 20.8516H35.9785C36.7012 20.8516 37.2871 21.4375 37.2871 22.1602C37.2871 22.3262 37.2529 22.4922 37.1943 22.6484L35.4121 27.1016L34.1621 30.2266H21.6621L20.8809 27.1016L18.5811 17.8926C18.5518 17.7803 18.5371 17.668 18.5371 17.5557C18.5371 16.7891 19.1621 16.1641 19.9287 16.1641ZM19.2695 27.1016L20.0508 30.2266H19.3184C18.8887 30.2266 18.5371 30.5781 18.5371 31.0078C18.5371 31.4375 18.8887 31.7891 19.3184 31.7891H36.5059C36.9355 31.7891 37.2871 31.4375 37.2871 31.0078C37.2871 30.5781 36.9355 30.2266 36.5059 30.2266H35.8467L37.0967 27.1016H38.0684C39.3623 27.1016 40.4121 28.1514 40.4121 29.4453V34.9141H15.4121V29.4453C15.4121 28.1514 16.4619 27.1016 17.7559 27.1016H19.2695ZM15.4121 36.4766H40.4121V38.8203C40.4121 40.1143 39.3623 41.1641 38.0684 41.1641H17.7559C16.4619 41.1641 15.4121 40.1143 15.4121 38.8203V36.4766Z" fill="#144059"/>
</g>
<defs>
<clipPath id="clip0_3432_188">
<rect width="25" height="25" fill="white" transform="translate(15.4121 16.1641)"/>
</clipPath>
</defs>
</svg>
