<svg width="40" height="40" viewBox="0 0 40 40" fill="none" xmlns="http://www.w3.org/2000/svg">
<path opacity="0.4" fill-rule="evenodd" clip-rule="evenodd" d="M0 3C0 1.34315 1.34315 0 3 0H37C38.6569 0 40 1.34315 40 3V37C40 38.6569 38.6569 40 37 40H3C1.34315 40 0 38.6569 0 37V3Z" fill="#536DE6"/>
<g clip-path="url(#clip0_2833_1807)">
<path d="M14.252 11H18.3125C19.7188 11 20.1406 11.8438 20.5625 12.6875C20.9844 13.5312 21.4062 14.375 22.8125 14.375H25.8078C26.3281 14.375 26.75 14.7969 26.75 15.3172C26.75 15.4367 26.7254 15.5563 26.6832 15.6688L25.4 18.875L24.5 21.125H15.5L14.9375 18.875L13.2816 12.2445C13.2605 12.1637 13.25 12.0828 13.25 12.002C13.25 11.45 13.7 11 14.252 11ZM13.7773 18.875L14.3398 21.125H13.8125C13.5031 21.125 13.25 21.3781 13.25 21.6875C13.25 21.9969 13.5031 22.25 13.8125 22.25H26.1875C26.4969 22.25 26.75 21.9969 26.75 21.6875C26.75 21.3781 26.4969 21.125 26.1875 21.125H25.7129L26.6129 18.875H27.3125C28.2441 18.875 29 19.6309 29 20.5625V24.5H11V20.5625C11 19.6309 11.7559 18.875 12.6875 18.875H13.7773ZM11 25.625H29V27.3125C29 28.2441 28.2441 29 27.3125 29H12.6875C11.7559 29 11 28.2441 11 27.3125V25.625Z" fill="#536DE6"/>
</g>
<defs>
<clipPath id="clip0_2833_1807">
<rect width="18" height="18" fill="white" transform="translate(11 11)"/>
</clipPath>
</defs>
</svg>
