<svg width="26" height="493" viewBox="0 0 26 493" fill="none" xmlns="http://www.w3.org/2000/svg">
<path fill-rule="evenodd" clip-rule="evenodd" d="M13.0004 17.0625C13.2159 17.0625 13.4225 16.9769 13.5749 16.8245C13.7273 16.6721 13.8129 16.4654 13.8129 16.25V4.36254L15.6329 6.48695C15.7731 6.65072 15.9726 6.75209 16.1876 6.76875C16.4025 6.78541 16.6153 6.716 16.7791 6.57579C16.9428 6.43558 17.0442 6.23605 17.0609 6.0211C17.0775 5.80615 17.0081 5.59339 16.8679 5.42962L13.6179 1.63795C13.5416 1.54876 13.4469 1.47714 13.3403 1.42804C13.2337 1.37894 13.1178 1.35352 13.0004 1.35352C12.883 1.35352 12.7671 1.37894 12.6605 1.42804C12.5539 1.47714 12.4592 1.54876 12.3829 1.63795L9.13289 5.42962C9.06347 5.51071 9.01069 5.60468 8.97759 5.70617C8.94448 5.80766 8.93168 5.91467 8.93993 6.0211C8.94818 6.12753 8.97731 6.2313 9.02566 6.32647C9.07401 6.42164 9.14064 6.50636 9.22173 6.57579C9.30282 6.64521 9.39679 6.69799 9.49828 6.73109C9.59976 6.7642 9.70678 6.777 9.81321 6.76875C9.91964 6.7605 10.0234 6.73137 10.1186 6.68302C10.2138 6.63467 10.2985 6.56804 10.3679 6.48695L12.1879 4.36362V16.25C12.1879 16.6985 12.5519 17.0625 13.0004 17.0625Z" fill="#6C757D"/>
<path d="M17.3346 9.75C16.5741 9.75 16.1939 9.75 15.9198 9.93308C15.802 10.0119 15.7007 10.1132 15.6219 10.231C15.4388 10.5051 15.4388 10.8853 15.4388 11.6458V16.25C15.4388 16.8965 15.182 17.5165 14.7249 17.9736C14.2678 18.4307 13.6478 18.6875 13.0013 18.6875C12.3548 18.6875 11.7348 18.4307 11.2777 17.9736C10.8206 17.5165 10.5638 16.8965 10.5638 16.25V11.6458C10.5638 10.8853 10.5638 10.5051 10.3807 10.231C10.3019 10.1132 10.2006 10.0119 10.0828 9.93308C9.80872 9.75 9.42847 9.75 8.66797 9.75C5.6043 9.75 4.07139 9.75 3.12022 10.7022C2.16797 11.6534 2.16797 13.1842 2.16797 16.2489V17.3322C2.16797 20.3981 2.16797 21.9288 3.12022 22.8811C4.07139 23.8333 5.6043 23.8333 8.66797 23.8333H17.3346C20.3983 23.8333 21.9312 23.8333 22.8824 22.8811C23.8346 21.9288 23.8346 20.397 23.8346 17.3333V16.25C23.8346 13.1853 23.8346 11.6534 22.8824 10.7022C21.9312 9.75 20.3983 9.75 17.3346 9.75Z" fill="#6C757D"/>
<path fill-rule="evenodd" clip-rule="evenodd" d="M13.0004 69.0625C13.2159 69.0625 13.4225 68.9769 13.5749 68.8245C13.7273 68.6721 13.8129 68.4654 13.8129 68.25V56.3625L15.6329 58.487C15.7731 58.6507 15.9726 58.7521 16.1876 58.7687C16.4025 58.7854 16.6153 58.716 16.7791 58.5758C16.9428 58.4356 17.0442 58.236 17.0609 58.0211C17.0775 57.8062 17.0081 57.5934 16.8679 57.4296L13.6179 53.638C13.5416 53.5488 13.4469 53.4771 13.3403 53.428C13.2337 53.3789 13.1178 53.3535 13.0004 53.3535C12.883 53.3535 12.7671 53.3789 12.6605 53.428C12.5539 53.4771 12.4592 53.5488 12.3829 53.638L9.13289 57.4296C9.06347 57.5107 9.01069 57.6047 8.97759 57.7062C8.94448 57.8077 8.93168 57.9147 8.93993 58.0211C8.94818 58.1275 8.97731 58.2313 9.02566 58.3265C9.07401 58.4216 9.14064 58.5064 9.22173 58.5758C9.30282 58.6452 9.39679 58.698 9.49828 58.7311C9.59976 58.7642 9.70678 58.777 9.81321 58.7687C9.91964 58.7605 10.0234 58.7314 10.1186 58.683C10.2138 58.6347 10.2985 58.568 10.3679 58.487L12.1879 56.3636V68.25C12.1879 68.6985 12.5519 69.0625 13.0004 69.0625Z" fill="#6C757D"/>
<path d="M17.3346 61.75C16.5741 61.75 16.1939 61.75 15.9198 61.9331C15.802 62.0119 15.7007 62.1132 15.6219 62.231C15.4388 62.5051 15.4388 62.8853 15.4388 63.6458V68.25C15.4388 68.8965 15.182 69.5165 14.7249 69.9736C14.2678 70.4307 13.6478 70.6875 13.0013 70.6875C12.3548 70.6875 11.7348 70.4307 11.2777 69.9736C10.8206 69.5165 10.5638 68.8965 10.5638 68.25V63.6458C10.5638 62.8853 10.5638 62.5051 10.3807 62.231C10.3019 62.1132 10.2006 62.0119 10.0828 61.9331C9.80872 61.75 9.42847 61.75 8.66797 61.75C5.6043 61.75 4.07139 61.75 3.12022 62.7022C2.16797 63.6534 2.16797 65.1842 2.16797 68.2489V69.3322C2.16797 72.3981 2.16797 73.9288 3.12022 74.8811C4.07139 75.8333 5.6043 75.8333 8.66797 75.8333H17.3346C20.3983 75.8333 21.9312 75.8333 22.8824 74.8811C23.8346 73.9288 23.8346 72.397 23.8346 69.3333V68.25C23.8346 65.1853 23.8346 63.6534 22.8824 62.7022C21.9312 61.75 20.3983 61.75 17.3346 61.75Z" fill="#6C757D"/>
<path fill-rule="evenodd" clip-rule="evenodd" d="M13.0004 122.062C13.2159 122.062 13.4225 121.977 13.5749 121.824C13.7273 121.672 13.8129 121.465 13.8129 121.25V109.363L15.6329 111.487C15.7731 111.651 15.9726 111.752 16.1876 111.769C16.4025 111.785 16.6153 111.716 16.7791 111.576C16.9428 111.436 17.0442 111.236 17.0609 111.021C17.0775 110.806 17.0081 110.593 16.8679 110.43L13.6179 106.638C13.5416 106.549 13.4469 106.477 13.3403 106.428C13.2337 106.379 13.1178 106.354 13.0004 106.354C12.883 106.354 12.7671 106.379 12.6605 106.428C12.5539 106.477 12.4592 106.549 12.3829 106.638L9.13289 110.43C9.06347 110.511 9.01069 110.605 8.97759 110.706C8.94448 110.808 8.93168 110.915 8.93993 111.021C8.94818 111.128 8.97731 111.231 9.02566 111.326C9.07401 111.422 9.14064 111.506 9.22173 111.576C9.30282 111.645 9.39679 111.698 9.49828 111.731C9.59976 111.764 9.70678 111.777 9.81321 111.769C9.91964 111.76 10.0234 111.731 10.1186 111.683C10.2138 111.635 10.2985 111.568 10.3679 111.487L12.1879 109.364V121.25C12.1879 121.698 12.5519 122.062 13.0004 122.062Z" fill="#6C757D"/>
<path d="M17.3346 114.75C16.5741 114.75 16.1939 114.75 15.9198 114.933C15.802 115.012 15.7007 115.113 15.6219 115.231C15.4388 115.505 15.4388 115.885 15.4388 116.646V121.25C15.4388 121.896 15.182 122.516 14.7249 122.974C14.2678 123.431 13.6478 123.688 13.0013 123.688C12.3548 123.688 11.7348 123.431 11.2777 122.974C10.8206 122.516 10.5638 121.896 10.5638 121.25V116.646C10.5638 115.885 10.5638 115.505 10.3807 115.231C10.3019 115.113 10.2006 115.012 10.0828 114.933C9.80872 114.75 9.42847 114.75 8.66797 114.75C5.6043 114.75 4.07139 114.75 3.12022 115.702C2.16797 116.653 2.16797 118.184 2.16797 121.249V122.332C2.16797 125.398 2.16797 126.929 3.12022 127.881C4.07139 128.833 5.6043 128.833 8.66797 128.833H17.3346C20.3983 128.833 21.9312 128.833 22.8824 127.881C23.8346 126.929 23.8346 125.397 23.8346 122.333V121.25C23.8346 118.185 23.8346 116.653 22.8824 115.702C21.9312 114.75 20.3983 114.75 17.3346 114.75Z" fill="#6C757D"/>
<path fill-rule="evenodd" clip-rule="evenodd" d="M13.0004 174.062C13.2159 174.062 13.4225 173.977 13.5749 173.824C13.7273 173.672 13.8129 173.465 13.8129 173.25V161.363L15.6329 163.487C15.7731 163.651 15.9726 163.752 16.1876 163.769C16.4025 163.785 16.6153 163.716 16.7791 163.576C16.9428 163.436 17.0442 163.236 17.0609 163.021C17.0775 162.806 17.0081 162.593 16.8679 162.43L13.6179 158.638C13.5416 158.549 13.4469 158.477 13.3403 158.428C13.2337 158.379 13.1178 158.354 13.0004 158.354C12.883 158.354 12.7671 158.379 12.6605 158.428C12.5539 158.477 12.4592 158.549 12.3829 158.638L9.13289 162.43C9.06347 162.511 9.01069 162.605 8.97759 162.706C8.94448 162.808 8.93168 162.915 8.93993 163.021C8.94818 163.128 8.97731 163.231 9.02566 163.326C9.07401 163.422 9.14064 163.506 9.22173 163.576C9.30282 163.645 9.39679 163.698 9.49828 163.731C9.59976 163.764 9.70678 163.777 9.81321 163.769C9.91964 163.76 10.0234 163.731 10.1186 163.683C10.2138 163.635 10.2985 163.568 10.3679 163.487L12.1879 161.364V173.25C12.1879 173.698 12.5519 174.062 13.0004 174.062Z" fill="#6C757D"/>
<path d="M17.3346 166.75C16.5741 166.75 16.1939 166.75 15.9198 166.933C15.802 167.012 15.7007 167.113 15.6219 167.231C15.4388 167.505 15.4388 167.885 15.4388 168.646V173.25C15.4388 173.896 15.182 174.516 14.7249 174.974C14.2678 175.431 13.6478 175.688 13.0013 175.688C12.3548 175.688 11.7348 175.431 11.2777 174.974C10.8206 174.516 10.5638 173.896 10.5638 173.25V168.646C10.5638 167.885 10.5638 167.505 10.3807 167.231C10.3019 167.113 10.2006 167.012 10.0828 166.933C9.80872 166.75 9.42847 166.75 8.66797 166.75C5.6043 166.75 4.07139 166.75 3.12022 167.702C2.16797 168.653 2.16797 170.184 2.16797 173.249V174.332C2.16797 177.398 2.16797 178.929 3.12022 179.881C4.07139 180.833 5.6043 180.833 8.66797 180.833H17.3346C20.3983 180.833 21.9312 180.833 22.8824 179.881C23.8346 178.929 23.8346 177.397 23.8346 174.333V173.25C23.8346 170.185 23.8346 168.653 22.8824 167.702C21.9312 166.75 20.3983 166.75 17.3346 166.75Z" fill="#6C757D"/>
<path fill-rule="evenodd" clip-rule="evenodd" d="M12.8324 224.709C13.0479 224.709 13.2546 224.623 13.4069 224.471C13.5593 224.319 13.6449 224.112 13.6449 223.896V212.009L15.4649 214.133C15.6051 214.297 15.8047 214.399 16.0196 214.415C16.2346 214.432 16.4473 214.362 16.6111 214.222C16.7749 214.082 16.8762 213.883 16.8929 213.668C16.9095 213.453 16.8401 213.24 16.6999 213.076L13.4499 209.284C13.3736 209.195 13.279 209.124 13.1724 209.075C13.0658 209.025 12.9498 209 12.8324 209C12.7151 209 12.5991 209.025 12.4925 209.075C12.3859 209.124 12.2912 209.195 12.2149 209.284L8.96492 213.076C8.8955 213.157 8.84273 213.251 8.80962 213.353C8.77651 213.454 8.76371 213.561 8.77196 213.668C8.78021 213.774 8.80934 213.878 8.85769 213.973C8.90604 214.068 8.97267 214.153 9.05376 214.222C9.13485 214.292 9.22882 214.344 9.33031 214.378C9.43179 214.411 9.53881 214.423 9.64524 214.415C9.75167 214.407 9.85544 214.378 9.95061 214.33C10.0458 214.281 10.1305 214.215 10.1999 214.133L12.0199 212.01V223.896C12.0199 224.345 12.3839 224.709 12.8324 224.709Z" fill="#6C757D"/>
<path d="M17.1667 217.396C16.4062 217.396 16.0259 217.396 15.7518 217.58C15.634 217.658 15.5328 217.76 15.4539 217.877C15.2708 218.152 15.2708 218.532 15.2708 219.292V223.896C15.2708 224.543 15.014 225.163 14.5569 225.62C14.0998 226.077 13.4798 226.334 12.8333 226.334C12.1869 226.334 11.5669 226.077 11.1098 225.62C10.6526 225.163 10.3958 224.543 10.3958 223.896V219.292C10.3958 218.532 10.3958 218.152 10.2128 217.877C10.1339 217.76 10.0327 217.658 9.91483 217.58C9.64075 217.396 9.2605 217.396 8.5 217.396C5.43633 217.396 3.90342 217.396 2.95225 218.349C2 219.3 2 220.831 2 223.895V224.979C2 228.045 2 229.575 2.95225 230.528C3.90342 231.48 5.43633 231.48 8.5 231.48H17.1667C20.2303 231.48 21.7633 231.48 22.7144 230.528C23.6667 229.575 23.6667 228.043 23.6667 224.98V223.896C23.6667 220.832 23.6667 219.3 22.7144 218.349C21.7633 217.396 20.2303 217.396 17.1667 217.396Z" fill="#6C757D"/>
<path fill-rule="evenodd" clip-rule="evenodd" d="M12.8324 276.709C13.0479 276.709 13.2546 276.623 13.4069 276.471C13.5593 276.319 13.6449 276.112 13.6449 275.896V264.009L15.4649 266.133C15.6051 266.297 15.8047 266.399 16.0196 266.415C16.2346 266.432 16.4473 266.362 16.6111 266.222C16.7749 266.082 16.8762 265.883 16.8929 265.668C16.9095 265.453 16.8401 265.24 16.6999 265.076L13.4499 261.284C13.3736 261.195 13.279 261.124 13.1724 261.075C13.0658 261.025 12.9498 261 12.8324 261C12.7151 261 12.5991 261.025 12.4925 261.075C12.3859 261.124 12.2912 261.195 12.2149 261.284L8.96492 265.076C8.8955 265.157 8.84273 265.251 8.80962 265.353C8.77651 265.454 8.76371 265.561 8.77196 265.668C8.78021 265.774 8.80934 265.878 8.85769 265.973C8.90604 266.068 8.97267 266.153 9.05376 266.222C9.13485 266.292 9.22882 266.344 9.33031 266.378C9.43179 266.411 9.53881 266.423 9.64524 266.415C9.75167 266.407 9.85544 266.378 9.95061 266.33C10.0458 266.281 10.1305 266.215 10.1999 266.133L12.0199 264.01V275.896C12.0199 276.345 12.3839 276.709 12.8324 276.709Z" fill="#6C757D"/>
<path d="M17.1667 269.396C16.4062 269.396 16.0259 269.396 15.7518 269.58C15.634 269.658 15.5328 269.76 15.4539 269.877C15.2708 270.152 15.2708 270.532 15.2708 271.292V275.896C15.2708 276.543 15.014 277.163 14.5569 277.62C14.0998 278.077 13.4798 278.334 12.8333 278.334C12.1869 278.334 11.5669 278.077 11.1098 277.62C10.6526 277.163 10.3958 276.543 10.3958 275.896V271.292C10.3958 270.532 10.3958 270.152 10.2128 269.877C10.1339 269.76 10.0327 269.658 9.91483 269.58C9.64075 269.396 9.2605 269.396 8.5 269.396C5.43633 269.396 3.90342 269.396 2.95225 270.349C2 271.3 2 272.831 2 275.895V276.979C2 280.045 2 281.575 2.95225 282.528C3.90342 283.48 5.43633 283.48 8.5 283.48H17.1667C20.2303 283.48 21.7633 283.48 22.7144 282.528C23.6667 281.575 23.6667 280.043 23.6667 276.98V275.896C23.6667 272.832 23.6667 271.3 22.7144 270.349C21.7633 269.396 20.2303 269.396 17.1667 269.396Z" fill="#6C757D"/>
<path fill-rule="evenodd" clip-rule="evenodd" d="M12.8324 329.709C13.0479 329.709 13.2546 329.623 13.4069 329.471C13.5593 329.319 13.6449 329.112 13.6449 328.896V317.009L15.4649 319.133C15.6051 319.297 15.8047 319.399 16.0196 319.415C16.2346 319.432 16.4473 319.362 16.6111 319.222C16.7749 319.082 16.8762 318.883 16.8929 318.668C16.9095 318.453 16.8401 318.24 16.6999 318.076L13.4499 314.284C13.3736 314.195 13.279 314.124 13.1724 314.075C13.0658 314.025 12.9498 314 12.8324 314C12.7151 314 12.5991 314.025 12.4925 314.075C12.3859 314.124 12.2912 314.195 12.2149 314.284L8.96492 318.076C8.8955 318.157 8.84273 318.251 8.80962 318.353C8.77651 318.454 8.76371 318.561 8.77196 318.668C8.78021 318.774 8.80934 318.878 8.85769 318.973C8.90604 319.068 8.97267 319.153 9.05376 319.222C9.13485 319.292 9.22882 319.344 9.33031 319.378C9.43179 319.411 9.53881 319.423 9.64524 319.415C9.75167 319.407 9.85544 319.378 9.95061 319.33C10.0458 319.281 10.1305 319.215 10.1999 319.133L12.0199 317.01V328.896C12.0199 329.345 12.3839 329.709 12.8324 329.709Z" fill="#6C757D"/>
<path d="M17.1667 322.396C16.4062 322.396 16.0259 322.396 15.7518 322.58C15.634 322.658 15.5328 322.76 15.4539 322.877C15.2708 323.152 15.2708 323.532 15.2708 324.292V328.896C15.2708 329.543 15.014 330.163 14.5569 330.62C14.0998 331.077 13.4798 331.334 12.8333 331.334C12.1869 331.334 11.5669 331.077 11.1098 330.62C10.6526 330.163 10.3958 329.543 10.3958 328.896V324.292C10.3958 323.532 10.3958 323.152 10.2128 322.877C10.1339 322.76 10.0327 322.658 9.91483 322.58C9.64075 322.396 9.2605 322.396 8.5 322.396C5.43633 322.396 3.90342 322.396 2.95225 323.349C2 324.3 2 325.831 2 328.895V329.979C2 333.045 2 334.575 2.95225 335.528C3.90342 336.48 5.43633 336.48 8.5 336.48H17.1667C20.2303 336.48 21.7633 336.48 22.7144 335.528C23.6667 334.575 23.6667 333.043 23.6667 329.98V328.896C23.6667 325.832 23.6667 324.3 22.7144 323.349C21.7633 322.396 20.2303 322.396 17.1667 322.396Z" fill="#6C757D"/>
<path fill-rule="evenodd" clip-rule="evenodd" d="M12.8324 381.709C13.0479 381.709 13.2546 381.623 13.4069 381.471C13.5593 381.319 13.6449 381.112 13.6449 380.896V369.009L15.4649 371.133C15.6051 371.297 15.8047 371.399 16.0196 371.415C16.2346 371.432 16.4473 371.362 16.6111 371.222C16.7749 371.082 16.8762 370.883 16.8929 370.668C16.9095 370.453 16.8401 370.24 16.6999 370.076L13.4499 366.284C13.3736 366.195 13.279 366.124 13.1724 366.075C13.0658 366.025 12.9498 366 12.8324 366C12.7151 366 12.5991 366.025 12.4925 366.075C12.3859 366.124 12.2912 366.195 12.2149 366.284L8.96492 370.076C8.8955 370.157 8.84273 370.251 8.80962 370.353C8.77651 370.454 8.76371 370.561 8.77196 370.668C8.78021 370.774 8.80934 370.878 8.85769 370.973C8.90604 371.068 8.97267 371.153 9.05376 371.222C9.13485 371.292 9.22882 371.344 9.33031 371.378C9.43179 371.411 9.53881 371.423 9.64524 371.415C9.75167 371.407 9.85544 371.378 9.95061 371.33C10.0458 371.281 10.1305 371.215 10.1999 371.133L12.0199 369.01V380.896C12.0199 381.345 12.3839 381.709 12.8324 381.709Z" fill="#6C757D"/>
<path d="M17.1667 374.396C16.4062 374.396 16.0259 374.396 15.7518 374.58C15.634 374.658 15.5328 374.76 15.4539 374.877C15.2708 375.152 15.2708 375.532 15.2708 376.292V380.896C15.2708 381.543 15.014 382.163 14.5569 382.62C14.0998 383.077 13.4798 383.334 12.8333 383.334C12.1869 383.334 11.5669 383.077 11.1098 382.62C10.6526 382.163 10.3958 381.543 10.3958 380.896V376.292C10.3958 375.532 10.3958 375.152 10.2128 374.877C10.1339 374.76 10.0327 374.658 9.91483 374.58C9.64075 374.396 9.2605 374.396 8.5 374.396C5.43633 374.396 3.90342 374.396 2.95225 375.349C2 376.3 2 377.831 2 380.895V381.979C2 385.045 2 386.575 2.95225 387.528C3.90342 388.48 5.43633 388.48 8.5 388.48H17.1667C20.2303 388.48 21.7633 388.48 22.7144 387.528C23.6667 386.575 23.6667 385.043 23.6667 381.98V380.896C23.6667 377.832 23.6667 376.3 22.7144 375.349C21.7633 374.396 20.2303 374.396 17.1667 374.396Z" fill="#6C757D"/>
<path fill-rule="evenodd" clip-rule="evenodd" d="M12.8324 433.709C13.0479 433.709 13.2546 433.623 13.4069 433.471C13.5593 433.319 13.6449 433.112 13.6449 432.896V421.009L15.4649 423.133C15.6051 423.297 15.8047 423.399 16.0196 423.415C16.2346 423.432 16.4473 423.362 16.6111 423.222C16.7749 423.082 16.8762 422.883 16.8929 422.668C16.9095 422.453 16.8401 422.24 16.6999 422.076L13.4499 418.284C13.3736 418.195 13.279 418.124 13.1724 418.075C13.0658 418.025 12.9498 418 12.8324 418C12.7151 418 12.5991 418.025 12.4925 418.075C12.3859 418.124 12.2912 418.195 12.2149 418.284L8.96492 422.076C8.8955 422.157 8.84273 422.251 8.80962 422.353C8.77651 422.454 8.76371 422.561 8.77196 422.668C8.78021 422.774 8.80934 422.878 8.85769 422.973C8.90604 423.068 8.97267 423.153 9.05376 423.222C9.13485 423.292 9.22882 423.344 9.33031 423.378C9.43179 423.411 9.53881 423.423 9.64524 423.415C9.75167 423.407 9.85544 423.378 9.95061 423.33C10.0458 423.281 10.1305 423.215 10.1999 423.133L12.0199 421.01V432.896C12.0199 433.345 12.3839 433.709 12.8324 433.709Z" fill="#6C757D"/>
<path d="M17.1667 426.396C16.4062 426.396 16.0259 426.396 15.7518 426.58C15.634 426.658 15.5328 426.76 15.4539 426.877C15.2708 427.152 15.2708 427.532 15.2708 428.292V432.896C15.2708 433.543 15.014 434.163 14.5569 434.62C14.0998 435.077 13.4798 435.334 12.8333 435.334C12.1869 435.334 11.5669 435.077 11.1098 434.62C10.6526 434.163 10.3958 433.543 10.3958 432.896V428.292C10.3958 427.532 10.3958 427.152 10.2128 426.877C10.1339 426.76 10.0327 426.658 9.91483 426.58C9.64075 426.396 9.2605 426.396 8.5 426.396C5.43633 426.396 3.90342 426.396 2.95225 427.349C2 428.3 2 429.831 2 432.895V433.979C2 437.045 2 438.575 2.95225 439.528C3.90342 440.48 5.43633 440.48 8.5 440.48H17.1667C20.2303 440.48 21.7633 440.48 22.7144 439.528C23.6667 438.575 23.6667 437.043 23.6667 433.98V432.896C23.6667 429.832 23.6667 428.3 22.7144 427.349C21.7633 426.396 20.2303 426.396 17.1667 426.396Z" fill="#6C757D"/>
<path fill-rule="evenodd" clip-rule="evenodd" d="M12.8324 485.709C13.0479 485.709 13.2546 485.623 13.4069 485.471C13.5593 485.319 13.6449 485.112 13.6449 484.896V473.009L15.4649 475.133C15.6051 475.297 15.8047 475.399 16.0196 475.415C16.2346 475.432 16.4473 475.362 16.6111 475.222C16.7749 475.082 16.8762 474.883 16.8929 474.668C16.9095 474.453 16.8401 474.24 16.6999 474.076L13.4499 470.284C13.3736 470.195 13.279 470.124 13.1724 470.075C13.0658 470.025 12.9498 470 12.8324 470C12.7151 470 12.5991 470.025 12.4925 470.075C12.3859 470.124 12.2912 470.195 12.2149 470.284L8.96492 474.076C8.8955 474.157 8.84273 474.251 8.80962 474.353C8.77651 474.454 8.76371 474.561 8.77196 474.668C8.78021 474.774 8.80934 474.878 8.85769 474.973C8.90604 475.068 8.97267 475.153 9.05376 475.222C9.13485 475.292 9.22882 475.344 9.33031 475.378C9.43179 475.411 9.53881 475.423 9.64524 475.415C9.75167 475.407 9.85544 475.378 9.95061 475.33C10.0458 475.281 10.1305 475.215 10.1999 475.133L12.0199 473.01V484.896C12.0199 485.345 12.3839 485.709 12.8324 485.709Z" fill="#6C757D"/>
<path d="M17.1667 478.396C16.4062 478.396 16.0259 478.396 15.7518 478.58C15.634 478.658 15.5328 478.76 15.4539 478.877C15.2708 479.152 15.2708 479.532 15.2708 480.292V484.896C15.2708 485.543 15.014 486.163 14.5569 486.62C14.0998 487.077 13.4798 487.334 12.8333 487.334C12.1869 487.334 11.5669 487.077 11.1098 486.62C10.6526 486.163 10.3958 485.543 10.3958 484.896V480.292C10.3958 479.532 10.3958 479.152 10.2128 478.877C10.1339 478.76 10.0327 478.658 9.91483 478.58C9.64075 478.396 9.2605 478.396 8.5 478.396C5.43633 478.396 3.90342 478.396 2.95225 479.349C2 480.3 2 481.831 2 484.895V485.979C2 489.045 2 490.575 2.95225 491.528C3.90342 492.48 5.43633 492.48 8.5 492.48H17.1667C20.2303 492.48 21.7633 492.48 22.7144 491.528C23.6667 490.575 23.6667 489.043 23.6667 485.98V484.896C23.6667 481.832 23.6667 480.3 22.7144 479.349C21.7633 478.396 20.2303 478.396 17.1667 478.396Z" fill="#6C757D"/>
</svg>
