<svg width="48" height="48" viewBox="0 0 48 48" fill="none" xmlns="http://www.w3.org/2000/svg">
<path opacity="0.25" fill-rule="evenodd" clip-rule="evenodd" d="M0 4C0 1.79086 1.79086 0 4 0H44C46.2091 0 48 1.79086 48 4V44C48 46.2091 46.2091 48 44 48H4C1.79086 48 0 46.2091 0 44V4Z" fill="#536DE6"/>
<path d="M14 25.75C14 23.6667 14.8283 21.4012 16.485 18.9537C18.1417 16.5062 20.6467 13.855 24 11C26.4583 13.0833 28.4533 15.0625 29.985 16.9375C31.5167 18.8125 32.6154 20.5938 33.2813 22.2812H30.5625C29.9792 21.0938 29.1458 19.8387 28.0625 18.5162C26.9792 17.1937 25.625 15.7925 24 14.3125C21.5208 16.5833 19.6513 18.6771 18.3913 20.5938C17.1313 22.5104 16.5008 24.2292 16.5 25.75C16.5 27.9792 17.2083 29.8283 18.625 31.2975C20.0417 32.7667 21.8333 33.5008 24 33.5V36C21.1458 36 18.7658 35.0208 16.86 33.0625C14.9542 31.1042 14.0008 28.6667 14 25.75ZM27.5 36.5938L26.9688 35.4062C26.8021 35.0521 26.6821 34.6825 26.6088 34.2975C26.5354 33.9125 26.4992 33.5217 26.5 33.125C26.5 32.6667 26.5521 32.2138 26.6563 31.7663C26.7604 31.3188 26.9167 30.8862 27.125 30.4688C27.2917 30.1146 27.4375 29.7554 27.5625 29.3912C27.6875 29.0271 27.7266 28.25 27.7266 28.25C28 27.5 28.1196 29.4167 28.0463 29.125C27.9729 28.8333 27.7266 28.25 27.7266 28.25C27.7266 28.25 27.7934 27.9312 27.7266 27.7461C27.6471 27.5259 27.3125 27.3125 27.3125 27.3125L29.0313 26.5625L29.5625 27.6875C29.6381 28.1205 29.5625 27.6875 29.625 28.168C29.6169 28.5619 29.6258 27.8333 29.625 28.25C29.625 28.7083 29.5729 29.1562 29.4688 29.5938C29.3646 30.0312 29.2083 30.4583 29 30.875C28.8333 31.2292 28.6875 31.5938 28.5625 31.9688C28.4375 32.3438 28.375 32.7292 28.375 33.125C28.375 33.4167 28.4063 33.7033 28.4688 33.985C28.5313 34.2667 28.625 34.5425 28.75 34.8125L29.2188 35.8438L27.5 36.5938ZM31.25 36.5938L30.7188 35.4062C30.5521 35.0521 30.4321 34.6825 30.3588 34.2975C30.2854 33.9125 30.2492 33.5217 30.25 33.125C30.25 32.6667 30.3021 32.2138 30.4063 31.7663C30.5104 31.3188 30.6667 30.8862 30.875 30.4688C31.0417 30.1146 31.1875 29.7554 31.3125 29.3912C31.4375 29.0271 31.5 28.6467 31.5 28.25C31.5 27.9375 31.4633 27.6354 31.39 27.3438C31.3167 27.0521 31.2179 26.7604 31.0938 26.4688L30.6563 25.5312L32.375 24.7812L32.9063 25.9062C33.0729 26.2812 33.1929 26.6617 33.2663 27.0475C33.3396 27.4333 33.3758 27.8342 33.375 28.25C33.375 28.7083 33.3229 29.1562 33.2188 29.5938C33.1146 30.0312 32.9583 30.4583 32.75 30.875C32.5833 31.2292 32.4375 31.5938 32.3125 31.9688C32.1875 32.3438 32.125 32.7292 32.125 33.125C32.125 33.4167 32.1563 33.7033 32.2188 33.985C32.2813 34.2667 32.375 34.5425 32.5 34.8125L32.9688 35.8438L31.25 36.5938ZM35 36.5938L34.4688 35.4062C34.3021 35.0521 34.1821 34.6825 34.1088 34.2975C34.0354 33.9125 33.9992 33.5217 34 33.125C34 32.6667 34.0521 32.2138 34.1563 31.7663C34.2604 31.3188 34.4167 30.8862 34.625 30.4688C34.7917 30.1146 34.9375 29.7554 35.0625 29.3912C35.1875 29.0271 35.25 28.6467 35.25 28.25C35.25 27.9375 35.2133 27.6354 35.14 27.3438C35.0667 27.0521 34.9679 26.7604 34.8438 26.4688L34.4063 25.5312L36.125 24.7812L36.6563 25.9062C36.8229 26.2604 36.9429 26.6354 37.0163 27.0312C37.0896 27.4271 37.1258 27.8333 37.125 28.25C37.125 28.7083 37.0729 29.1617 36.9688 29.61C36.8646 30.0583 36.7083 30.4904 36.5 30.9062C36.3333 31.2604 36.1875 31.62 36.0625 31.985C35.9375 32.35 35.875 32.73 35.875 33.125C35.875 33.4167 35.9063 33.7033 35.9688 33.985C36.0313 34.2667 36.125 34.5425 36.25 34.8125L36.7188 35.8438L35 36.5938Z" fill="#536DE6"/>
<path d="M20.488 26.036C20.3867 26.036 20.304 26.0147 20.24 25.972C20.1787 25.9293 20.1267 25.8613 20.084 25.768L19.116 23.632C19.0733 23.5387 19.06 23.4547 19.076 23.38C19.092 23.3053 19.1293 23.248 19.188 23.208C19.2467 23.1653 19.32 23.144 19.408 23.144C19.5173 23.144 19.5987 23.168 19.652 23.216C19.708 23.264 19.756 23.3347 19.796 23.428L20.612 25.316H20.388L21.204 23.424C21.244 23.3307 21.292 23.2613 21.348 23.216C21.404 23.168 21.4827 23.144 21.584 23.144C21.6667 23.144 21.736 23.1653 21.792 23.208C21.848 23.248 21.8827 23.3053 21.896 23.38C21.912 23.4547 21.8987 23.5387 21.856 23.632L20.884 25.768C20.844 25.8613 20.7933 25.9293 20.732 25.972C20.6707 26.0147 20.5893 26.036 20.488 26.036ZM23.5105 26.044C23.2252 26.044 22.9745 25.984 22.7585 25.864C22.5425 25.7413 22.3745 25.5707 22.2545 25.352C22.1372 25.1333 22.0785 24.8787 22.0785 24.588C22.0785 24.3693 22.1119 24.1707 22.1785 23.992C22.2479 23.8133 22.3452 23.66 22.4705 23.532C22.5985 23.404 22.7505 23.3067 22.9265 23.24C23.1025 23.1707 23.2972 23.136 23.5105 23.136C23.7959 23.136 24.0452 23.196 24.2585 23.316C24.4745 23.436 24.6425 23.6053 24.7625 23.824C24.8825 24.04 24.9425 24.2947 24.9425 24.588C24.9425 24.8067 24.9079 25.0053 24.8385 25.184C24.7719 25.3627 24.6745 25.5173 24.5465 25.648C24.4212 25.776 24.2705 25.8747 24.0945 25.944C23.9185 26.0107 23.7239 26.044 23.5105 26.044ZM23.5105 25.428C23.6519 25.428 23.7719 25.3947 23.8705 25.328C23.9692 25.2613 24.0452 25.1653 24.0985 25.04C24.1519 24.9147 24.1785 24.764 24.1785 24.588C24.1785 24.324 24.1199 24.1187 24.0025 23.972C23.8852 23.8253 23.7212 23.752 23.5105 23.752C23.3719 23.752 23.2519 23.7853 23.1505 23.852C23.0519 23.916 22.9759 24.0107 22.9225 24.136C22.8692 24.2587 22.8425 24.4093 22.8425 24.588C22.8425 24.852 22.9012 25.0587 23.0185 25.208C23.1359 25.3547 23.2999 25.428 23.5105 25.428ZM26.8011 26.044C26.4891 26.044 26.2211 25.984 25.9971 25.864C25.7731 25.744 25.6011 25.5747 25.4811 25.356C25.3638 25.1373 25.3051 24.8813 25.3051 24.588C25.3051 24.3693 25.3384 24.1707 25.4051 23.992C25.4744 23.8133 25.5731 23.66 25.7011 23.532C25.8318 23.404 25.9891 23.3067 26.1731 23.24C26.3598 23.1707 26.5691 23.136 26.8011 23.136C26.9238 23.136 27.0504 23.1507 27.1811 23.18C27.3144 23.2067 27.4318 23.248 27.5331 23.304C27.6078 23.344 27.6598 23.3947 27.6891 23.456C27.7184 23.5173 27.7278 23.58 27.7171 23.644C27.7091 23.708 27.6864 23.7653 27.6491 23.816C27.6118 23.8667 27.5638 23.9013 27.5051 23.92C27.4464 23.936 27.3824 23.9267 27.3131 23.892C27.2331 23.8547 27.1531 23.8267 27.0731 23.808C26.9958 23.7867 26.9144 23.776 26.8291 23.776C26.6638 23.776 26.5251 23.808 26.4131 23.872C26.3038 23.9333 26.2211 24.024 26.1651 24.144C26.1091 24.264 26.0811 24.412 26.0811 24.588C26.0811 24.764 26.1091 24.9133 26.1651 25.036C26.2211 25.156 26.3038 25.248 26.4131 25.312C26.5251 25.3733 26.6638 25.404 26.8291 25.404C26.8984 25.404 26.9731 25.396 27.0531 25.38C27.1331 25.3613 27.2118 25.3333 27.2891 25.296C27.3691 25.2613 27.4398 25.252 27.5011 25.268C27.5651 25.284 27.6158 25.316 27.6531 25.364C27.6931 25.412 27.7184 25.468 27.7291 25.532C27.7398 25.5933 27.7304 25.6547 27.7011 25.716C27.6744 25.7773 27.6264 25.8267 27.5571 25.864C27.4638 25.92 27.3478 25.964 27.2091 25.996C27.0731 26.028 26.9371 26.044 26.8011 26.044Z" fill="#536DE6"/>
</svg>
